<svg xmlns="http://www.w3.org/2000/svg" width="32" height="32"><path d="M16,3.556C22.873,3.556 28.445,9.127 28.445,16C28.445,22.873 22.873,28.444 16,28.444C9.127,28.444 3.556,22.873 3.556,16C3.556,9.127 9.127,3.556 16,3.556ZM5.333,16C5.333,21.891 10.109,26.667 16,26.667C21.891,26.667 26.667,21.891 26.667,16C26.667,10.109 21.891,5.333 16,5.333C10.109,5.333 5.333,10.109 5.333,16ZM13.822,13.555C13.822,14.415 13.195,15.111 12.422,15.111C11.649,15.111 11.022,14.415 11.022,13.555C11.022,12.696 11.649,12 12.422,12C13.195,12 13.822,12.696 13.822,13.555ZM19.622,15.111C18.849,15.111 18.222,14.415 18.222,13.555C18.222,12.696 18.849,12 19.622,12C20.395,12 21.022,12.696 21.022,13.555C21.022,14.415 20.395,15.111 19.622,15.111ZM12.435,21.047C12.428,21.07 12.418,21.102 12.418,21.102C12.302,21.575 11.825,21.866 11.351,21.754C10.873,21.641 10.578,21.161 10.691,20.683L10.697,20.658C10.7,20.647 10.704,20.633 10.708,20.616C10.718,20.583 10.731,20.539 10.748,20.487C10.783,20.382 10.835,20.241 10.911,20.076C11.063,19.746 11.311,19.311 11.703,18.877C12.509,17.985 13.859,17.169 16,17.169C18.141,17.169 19.491,17.985 20.297,18.877C20.689,19.311 20.937,19.746 21.088,20.076C21.164,20.241 21.217,20.382 21.252,20.487C21.269,20.539 21.282,20.583 21.292,20.616C21.296,20.633 21.3,20.647 21.303,20.658L21.309,20.683C21.422,21.161 21.127,21.641 20.649,21.754C20.175,21.866 19.699,21.574 19.581,21.102L19.58,21.096C19.578,21.088 19.573,21.072 19.565,21.047C19.548,20.997 19.519,20.917 19.473,20.817C19.38,20.616 19.225,20.343 18.978,20.069C18.505,19.545 17.632,18.947 16,18.947C14.368,18.947 13.495,19.545 13.022,20.069C12.775,20.343 12.619,20.616 12.527,20.817C12.481,20.917 12.452,20.997 12.435,21.047Z"/></svg>