<svg width="24" height="24" viewBox="0 0 24 24" fill="none" xmlns="http://www.w3.org/2000/svg">
<g id="msg_emoji_away">
<path id="Path 267" fill-rule="evenodd" clip-rule="evenodd" d="M5.30152 10.3899C4.39666 10.5298 3.77407 11.3734 3.90718 12.2793L4.89634 19.011C5.03055 19.9243 5.88153 20.5546 6.79429 20.4167L18.6419 18.6267C19.5689 18.4866 20.198 17.6099 20.0339 16.6869L18.8353 9.94611C18.6767 9.0543 17.8349 8.45241 16.9397 8.59079L5.30152 10.3899Z" stroke="black" stroke-width="1.33333" stroke-linecap="round"/>
<ellipse id="Oval" cx="12.3445" cy="3.00002" rx="1.34452" ry="1.33333" fill="black"/>
<g id="Group">
<mask id="mask0_4266_10554" style="mask-type:luminance" maskUnits="userSpaceOnUse" x="1" y="1" width="21" height="9">
<path id="Path 270" fill-rule="evenodd" clip-rule="evenodd" d="M2.61594 9.07244L21.0794 6.27737C21.0794 6.27737 18.3499 1.66669 18.0728 1.66669C17.7958 1.66669 1.82019 4.65786 1.82019 4.65786L2.61594 9.07244Z" fill="white"/>
</mask>
<g mask="url(#mask0_4266_10554)">
<path id="Path 268" d="M5.58972 8.72235L9.76024 4.88171" stroke="black" stroke-width="1.33333" stroke-linecap="round"/>
<path id="Path 269" d="M17.4193 7.48465L14.9109 4.65784" stroke="black" stroke-width="1.33333" stroke-linecap="round"/>
</g>
</g>
</g>
</svg>
