<svg xmlns="http://www.w3.org/2000/svg" width="32" height="32"><path d="M5.206,22.197C4.156,20.371 3.556,18.255 3.556,16C3.556,9.127 9.127,3.556 16,3.556C22.873,3.556 28.444,9.127 28.444,16C28.444,22.873 22.873,28.444 16,28.444C15.498,28.444 15.003,28.415 14.517,28.357C14.279,29 13.777,29.815 12.743,30.115C11.509,30.475 10.129,30.53 8.966,30.392C8.38,30.323 7.8,30.199 7.287,30.011C6.818,29.839 6.216,29.545 5.792,29.022C5.017,28.065 4.712,26.886 4.659,25.776C4.605,24.659 4.798,23.502 5.135,22.447C5.162,22.363 5.185,22.279 5.206,22.197ZM5.333,16C5.333,16.858 5.435,17.693 5.626,18.491C5.747,18.31 5.91,18.135 6.131,17.985C6.741,17.571 7.393,17.503 7.883,17.553C8.322,17.597 8.816,17.754 9.194,18.054C10.477,19.073 10.492,20.401 10.461,21.101C10.504,21.096 10.551,21.089 10.602,21.08C10.94,21.022 11.298,20.915 11.791,20.768C11.9,20.735 12.016,20.7 12.14,20.664L12.234,20.636C13.102,20.38 14.158,20.068 15.01,19.957C15.422,19.903 16.029,19.858 16.601,20.048C16.918,20.154 17.301,20.358 17.6,20.745C17.908,21.143 18.017,21.596 18.017,21.999C18.017,22.623 17.858,23.243 17.443,23.772C17.056,24.267 16.559,24.535 16.185,24.697C15.893,24.823 15.551,24.935 15.277,25.024C15.218,25.043 15.162,25.062 15.111,25.079C15.024,25.108 14.939,25.137 14.855,25.166C14.855,25.257 14.855,25.358 14.855,25.468L14.855,25.477C14.854,25.722 14.854,26.007 14.845,26.298C14.842,26.395 14.838,26.497 14.832,26.603C15.215,26.645 15.605,26.667 16,26.667C21.891,26.667 26.667,21.891 26.667,16C26.667,10.109 21.891,5.333 16,5.333C10.109,5.333 5.333,10.109 5.333,16ZM9.563,9.675C10.199,9.161 11.108,8.711 12.054,8.711C12.989,8.711 13.838,9.058 14.452,9.476C14.759,9.686 15.012,9.917 15.191,10.137C15.363,10.349 15.488,10.58 15.488,10.787C15.488,10.841 15.473,10.91 15.417,10.965C15.364,11.018 15.299,11.032 15.253,11.035C15.168,11.041 15.07,11.014 14.985,10.986C14.866,10.946 14.711,10.882 14.534,10.809C14.443,10.771 14.347,10.731 14.247,10.691C13.641,10.448 12.834,10.168 11.977,10.168C11.14,10.168 10.444,10.563 9.912,10.916C9.838,10.965 9.765,11.015 9.695,11.063C9.523,11.18 9.366,11.288 9.239,11.353C9.151,11.398 9.045,11.442 8.939,11.436C8.881,11.433 8.821,11.416 8.768,11.376C8.716,11.338 8.682,11.287 8.659,11.234C8.606,11.114 8.612,10.981 8.644,10.858C8.676,10.734 8.738,10.603 8.821,10.474C8.986,10.214 9.244,9.933 9.563,9.675ZM12.222,14.711C11.486,14.711 10.889,13.905 10.889,12.911C10.889,11.917 11.486,11.111 12.222,11.111C12.959,11.111 13.556,11.917 13.556,12.911C13.556,13.905 12.959,14.711 12.222,14.711ZM21.111,13.711C21.111,14.705 20.514,15.511 19.778,15.511C19.041,15.511 18.444,14.705 18.444,13.711C18.444,12.717 19.041,11.911 19.778,11.911C20.514,11.911 21.111,12.717 21.111,13.711ZM11.379,17.213L11.393,17.205L11.417,17.192C11.436,17.181 11.462,17.167 11.494,17.151C11.558,17.118 11.648,17.074 11.761,17.025C11.987,16.926 12.31,16.804 12.719,16.696C13.537,16.479 14.7,16.319 16.115,16.519C17.529,16.719 18.636,17.201 19.394,17.635C19.772,17.852 20.065,18.059 20.268,18.215C20.369,18.293 20.447,18.359 20.503,18.407C20.531,18.431 20.553,18.451 20.57,18.466L20.601,18.495C20.928,18.809 20.94,19.33 20.626,19.658C20.313,19.985 19.794,19.996 19.466,19.685L19.448,19.669L19.427,19.65C19.393,19.621 19.338,19.575 19.263,19.517C19.113,19.401 18.882,19.237 18.575,19.061C17.962,18.709 17.053,18.313 15.885,18.147C14.718,17.982 13.778,18.116 13.14,18.285C12.82,18.37 12.576,18.464 12.417,18.533C12.338,18.567 12.28,18.595 12.246,18.613C12.228,18.622 12.216,18.629 12.21,18.632L11.795,17.922L12.208,18.633C11.817,18.86 11.316,18.729 11.086,18.339C10.856,17.948 10.988,17.443 11.379,17.213ZM18.218,9.755C18.799,9.571 19.599,9.493 20.501,9.572C21.409,9.651 22.125,9.916 22.611,10.241C22.854,10.403 23.043,10.582 23.169,10.764C23.294,10.945 23.363,11.137 23.347,11.321C23.343,11.361 23.332,11.402 23.307,11.439C23.283,11.477 23.249,11.504 23.212,11.522C23.144,11.555 23.063,11.558 22.991,11.552C22.843,11.541 22.637,11.487 22.396,11.423L22.338,11.408C21.848,11.277 21.167,11.096 20.325,11.022C19.598,10.958 18.969,10.994 18.473,11.023C18.369,11.028 18.272,11.034 18.18,11.038C17.921,11.05 17.695,11.053 17.533,11.014C17.45,10.993 17.368,10.959 17.308,10.895C17.244,10.828 17.217,10.742 17.218,10.649C17.222,10.44 17.337,10.258 17.511,10.112C17.685,9.966 17.927,9.846 18.218,9.755ZM7.014,28.033C7.649,28.817 10.313,29.185 12.304,28.605C13.281,28.321 13.282,26.687 13.282,25.449C13.282,24.722 13.282,24.132 13.481,24.034C13.957,23.801 14.414,23.652 14.821,23.519C15.771,23.208 16.445,22.987 16.445,21.999C16.445,21.034 14.464,21.618 12.604,22.167L12.585,22.172C12.479,22.203 12.376,22.235 12.273,22.265C11.176,22.594 10.229,22.877 9.393,22.531C8.823,22.296 8.85,21.801 8.88,21.227C8.914,20.597 8.953,19.872 8.216,19.286C8.046,19.151 7.477,18.972 7.014,19.286C6.807,19.427 6.831,19.79 6.866,20.32C6.909,20.973 6.968,21.877 6.633,22.926C6.05,24.752 6.013,26.796 7.014,28.033Z"/></svg>