<svg width="24" height="24" viewBox="0 0 24 24" fill="none" xmlns="http://www.w3.org/2000/svg">
<g id="msg_emoji_what">
<path id="Union" fill-rule="evenodd" clip-rule="evenodd" d="M3.99999 12C3.99999 7.58168 7.58171 3.99996 12 3.99996C16.4183 3.99996 20 7.58168 20 12C20 16.4182 16.4183 20 12 20C11.7038 20 11.4116 19.9839 11.1241 19.9526C11.1284 19.8731 11.1315 19.7965 11.1338 19.7238C11.1406 19.5054 11.1408 19.2916 11.1409 19.108L11.1409 19.101V19.1007C11.1409 19.018 11.1409 18.9431 11.1413 18.8746C11.2039 18.8524 11.2677 18.8308 11.333 18.8091C11.3717 18.7963 11.4135 18.7826 11.4577 18.7682L11.4578 18.7682C11.6634 18.7011 11.9194 18.6176 12.1387 18.5225C12.4192 18.4009 12.792 18.2004 13.0826 17.8291C13.3935 17.4319 13.5129 16.9675 13.5129 16.4989C13.5129 16.197 13.4309 15.8575 13.2 15.5584C12.9761 15.2683 12.6885 15.1153 12.4506 15.036C12.022 14.8932 11.5665 14.9273 11.2575 14.9677C10.6187 15.0512 9.82685 15.2849 9.17535 15.4772L9.10484 15.498C9.01206 15.5253 8.92522 15.5513 8.84338 15.5757L8.8433 15.5757L8.84266 15.5759L8.84263 15.5759L8.84261 15.5759C8.47287 15.6864 8.20508 15.7663 7.95146 15.8102C7.9134 15.8168 7.87836 15.822 7.84607 15.826C7.86914 15.3011 7.85738 14.3048 6.89547 13.5407C6.6119 13.3155 6.24119 13.1977 5.91221 13.1645C5.54463 13.1273 5.05538 13.1779 4.59795 13.4886C4.43247 13.601 4.31001 13.7328 4.21926 13.8686C4.07591 13.2694 3.99999 12.6437 3.99999 12ZM3.90439 16.6475C3.11692 15.2785 2.66666 13.6909 2.66666 12C2.66666 6.8453 6.84533 2.66663 12 2.66663C17.1546 2.66663 21.3333 6.8453 21.3333 12C21.3333 17.1546 17.1546 21.3333 12 21.3333C11.6237 21.3333 11.2524 21.311 10.8874 21.2676C10.7094 21.7497 10.3328 22.3609 9.55756 22.5866C8.63208 22.856 7.59655 22.8973 6.72458 22.7942C6.28473 22.7422 5.84984 22.6492 5.46549 22.5082C5.11327 22.3791 4.66174 22.159 4.34399 21.7666C3.7629 21.0489 3.53403 20.1643 3.49391 19.3319C3.45352 18.494 3.59854 17.6262 3.85114 16.8355C3.87143 16.772 3.88908 16.7094 3.90439 16.6475ZM9.1667 11.0335C9.71898 11.0335 10.1667 10.4291 10.1667 9.68348C10.1667 8.93789 9.71898 8.33348 9.1667 8.33348C8.61441 8.33348 8.1667 8.93789 8.1667 9.68348C8.1667 10.4291 8.61441 11.0335 9.1667 11.0335ZM15.8333 10.2833C15.8333 11.0289 15.3856 11.6333 14.8333 11.6333C14.281 11.6333 13.8333 11.0289 13.8333 10.2833C13.8333 9.53774 14.281 8.93333 14.8333 8.93333C15.3856 8.93333 15.8333 9.53774 15.8333 10.2833ZM5.26068 21.0244C4.50974 20.0969 4.53722 18.5638 4.97469 17.1944C5.2261 16.4075 5.18149 15.7294 5.14931 15.2401C5.12317 14.8428 5.10521 14.5699 5.26068 14.4643C5.60756 14.2287 6.03432 14.363 6.16185 14.4643C6.71504 14.9037 6.68575 15.448 6.66034 15.9203C6.63716 16.3509 6.61721 16.7217 7.04487 16.8986C7.67211 17.158 8.38168 16.9455 9.20471 16.6989C9.28163 16.6759 9.35954 16.6526 9.43847 16.6293L9.45324 16.6249C10.8477 16.2137 12.3334 15.7756 12.3334 16.4989C12.3334 17.2406 11.8282 17.4059 11.1156 17.639L11.1156 17.639L11.1156 17.639L11.1156 17.639C10.8108 17.7387 10.468 17.8508 10.1107 18.0258C9.96152 18.0988 9.96145 18.5414 9.96138 19.0871C9.96124 20.0149 9.96107 21.2407 9.2279 21.4541C7.73504 21.8887 5.73711 21.6128 5.26068 21.0244ZM8.84633 13.4416L8.53368 12.9101C8.24012 13.0828 8.14212 13.4607 8.3148 13.7543C8.48682 14.0467 8.86257 14.1451 9.15565 13.9751L9.15567 13.9751L8.84633 13.4416ZM8.84633 13.4416L9.15814 13.9737L9.1574 13.9741L9.15625 13.9748L9.15825 13.9737C9.1625 13.9713 9.17119 13.9666 9.1842 13.9599C9.21022 13.9466 9.25343 13.9254 9.31286 13.8995C9.43182 13.8477 9.61498 13.7776 9.85483 13.7141C10.3338 13.5872 11.0386 13.4866 11.9135 13.6106C12.7897 13.7347 13.4714 14.0321 13.9315 14.296C14.1613 14.4279 14.3345 14.5507 14.4473 14.6377C14.5037 14.6812 14.5447 14.7155 14.5699 14.7374L14.5858 14.7514L14.5958 14.7603L14.5993 14.7636L14.5994 14.7636L14.5996 14.7638C14.8456 14.9974 15.2344 14.9885 15.4694 14.7433C15.7051 14.4974 15.6968 14.107 15.4509 13.8714L15.0242 14.3166C15.4509 13.8714 15.4507 13.8712 15.4505 13.8711L15.4502 13.8707L15.4494 13.8699L15.4474 13.8681L15.4423 13.8633L15.4272 13.8493C15.415 13.8382 15.3984 13.8233 15.3774 13.8052C15.3356 13.769 15.2766 13.7198 15.2007 13.6612C15.049 13.5442 14.8293 13.3893 14.5452 13.2263C13.9773 12.9004 13.1469 12.5396 12.0865 12.3894C11.0249 12.2391 10.1528 12.3593 9.53908 12.5218C9.23259 12.603 8.99043 12.6947 8.82067 12.7686C8.73573 12.8056 8.66872 12.8382 8.62062 12.8629C8.59656 12.8752 8.57721 12.8856 8.56269 12.8937L8.54453 12.9038L8.53818 12.9075L8.5357 12.9089L8.53463 12.9095L8.53414 12.9098C8.53391 12.91 8.53368 12.9101 8.84633 13.4416ZM7.17258 7.25657C7.64962 6.87103 8.33083 6.5333 9.04024 6.5333C9.74191 6.5333 10.3783 6.79333 10.8387 7.1073C11.0692 7.26443 11.2592 7.43747 11.3931 7.60285C11.5221 7.76212 11.6162 7.93537 11.6162 8.09044C11.6162 8.13091 11.605 8.18276 11.5629 8.22406C11.5228 8.26336 11.4739 8.27406 11.4396 8.27645C11.3761 8.28086 11.3027 8.26059 11.2384 8.23918C11.1495 8.20962 11.0331 8.16138 10.9008 8.10653L10.9007 8.10652L10.9007 8.10649C10.8325 8.07825 10.7601 8.04825 10.6851 8.01816C10.2306 7.83581 9.62527 7.62621 8.98252 7.62621C8.35469 7.62621 7.83311 7.92207 7.43378 8.18704C7.37828 8.22386 7.32381 8.26106 7.27119 8.297C7.14222 8.3851 7.02431 8.46563 6.92931 8.51459C6.86334 8.54859 6.78383 8.58125 6.70423 8.57725C6.66044 8.57505 6.61569 8.56174 6.57593 8.53216C6.53713 8.50329 6.5112 8.46499 6.49389 8.42549C6.4544 8.33533 6.45897 8.23571 6.48286 8.14351C6.50701 8.0503 6.55385 7.95253 6.61554 7.85521C6.73913 7.66028 6.93335 7.44991 7.17258 7.25657ZM13.6633 7.31607C14.0994 7.17854 14.6994 7.1198 15.3759 7.17898C16.0568 7.23856 16.5936 7.43695 16.9585 7.68048C17.1407 7.80213 17.2823 7.93662 17.3767 8.07307C17.4705 8.20865 17.522 8.35305 17.51 8.49083C17.5074 8.52064 17.4989 8.55141 17.4806 8.57943C17.4621 8.6079 17.4369 8.62822 17.4091 8.64168C17.3578 8.66662 17.2972 8.66829 17.2429 8.66411C17.1324 8.65559 16.978 8.61542 16.7967 8.56721L16.7533 8.55564C16.3859 8.45774 15.8754 8.32169 15.2434 8.2664C14.6988 8.21875 14.227 8.24566 13.8547 8.26688H13.8547C13.777 8.27131 13.7037 8.2755 13.6349 8.2787C13.4406 8.28776 13.2711 8.28988 13.1494 8.26025C13.0873 8.24512 13.0262 8.21918 12.9808 8.17143C12.9327 8.12081 12.9125 8.05666 12.9138 7.98712C12.9165 7.82976 13.0025 7.69361 13.1331 7.58402C13.2634 7.47469 13.4456 7.38473 13.6633 7.31607Z" fill="black"/>
</g>
</svg>
