<svg width="24" height="24" viewBox="0 0 24 24" fill="none" xmlns="http://www.w3.org/2000/svg">
<g id="msg_emoji_omg">
<path id="Union" fill-rule="evenodd" clip-rule="evenodd" d="M4.00002 12C4.00002 7.58168 7.58174 3.99996 12 3.99996C16.4183 3.99996 20 7.58168 20 12C20 16.4182 16.4183 20 12 20C7.58174 20 4.00002 16.4182 4.00002 12ZM12 2.66663C6.84536 2.66663 2.66669 6.8453 2.66669 12C2.66669 17.1546 6.84536 21.3333 12 21.3333C17.1547 21.3333 21.3334 17.1546 21.3334 12C21.3334 6.8453 17.1547 2.66663 12 2.66663ZM12 14.5C13.6568 14.5 15.5 15.8829 15.5 16.7284C15.5 17.257 14.7798 17.1247 13.8351 16.9513C13.2685 16.8473 12.6212 16.7284 12 16.7284C11.3788 16.7284 10.7314 16.8473 10.1648 16.9513C9.22014 17.1247 8.49998 17.257 8.49998 16.7284C8.49998 15.8829 10.3431 14.5 12 14.5ZM16.3334 11.6666C16.3334 12.403 15.8856 13 15.3334 13C14.7811 13 14.3334 12.403 14.3334 11.6666C14.3334 10.9302 14.7811 10.3333 15.3334 10.3333C15.8856 10.3333 16.3334 10.9302 16.3334 11.6666ZM8.66661 13C9.21889 13 9.66661 12.403 9.66661 11.6666C9.66661 10.9302 9.21889 10.3333 8.66661 10.3333C8.11432 10.3333 7.66661 10.9302 7.66661 11.6666C7.66661 12.403 8.11432 13 8.66661 13ZM10.1083 7.45416C10.1083 7.20498 9.91616 6.96613 9.51919 6.88737C9.12816 6.80979 8.5219 6.87937 7.6241 7.23094C7.21888 7.38963 6.8606 7.66412 6.57799 7.95925C6.29568 8.25407 6.08277 8.57589 5.97191 8.83678C5.95083 8.88639 5.96414 8.93314 5.97174 8.95454C5.98096 8.9805 5.99499 9.00496 6.00877 9.02569C6.03679 9.06786 6.07545 9.11193 6.11465 9.15004C6.15362 9.18795 6.19851 9.22522 6.24105 9.25086C6.26165 9.26327 6.28791 9.27678 6.31657 9.28386C6.34139 9.29 6.39882 9.2985 6.44864 9.25667C6.47922 9.23099 6.51163 9.20319 6.54603 9.1737L6.5461 9.17364C6.84895 8.91395 7.30541 8.52254 8.01973 8.27795C8.53179 8.10262 8.95084 8.01817 9.27598 7.95264L9.27599 7.95264L9.27599 7.95264C9.35413 7.93689 9.42685 7.92224 9.49412 7.90768C9.66306 7.87112 9.81115 7.83262 9.91713 7.77114C9.97235 7.73911 10.0217 7.69787 10.0567 7.64234C10.0924 7.58584 10.1083 7.52231 10.1083 7.45416ZM13.8845 7.45416C13.8845 7.20498 14.0766 6.96613 14.4736 6.88737C14.8646 6.80979 15.4709 6.87937 16.3687 7.23094C16.829 7.41118 17.229 7.74093 17.5268 8.08163C17.8226 8.42009 18.0294 8.78321 18.0897 9.04077C18.105 9.10624 18.0862 9.16711 18.059 9.21239C18.0316 9.25802 17.9913 9.29607 17.9462 9.32302C17.8575 9.37597 17.7214 9.39976 17.6073 9.30859C17.5581 9.26926 17.5039 9.22281 17.4439 9.17134C17.14 8.91097 16.6863 8.52218 15.9731 8.27795C15.461 8.10261 15.042 8.01816 14.7168 7.95264C14.6387 7.93689 14.566 7.92224 14.4987 7.90768C14.3297 7.87112 14.1817 7.83262 14.0757 7.77114C14.0205 7.73911 13.9711 7.69787 13.9361 7.64234C13.9005 7.58584 13.8845 7.52231 13.8845 7.45416Z" fill="black"/>
</g>
</svg>
