<svg width="24" height="24" viewBox="0 0 24 24" fill="none" xmlns="http://www.w3.org/2000/svg">
<g id="msg_emoji_dislike">
<path id="Vector" d="M9.82233 3.67517C10.1896 3.67517 10.4873 3.9729 10.4873 4.34017C10.4873 4.70744 10.1896 5.00517 9.82233 5.00517V3.67517ZM6.98616 4.34017L6.97996 3.67517H6.98616V4.34017ZM8.61641 13.2819C8.98368 13.2819 9.28141 13.5796 9.28142 13.9469C9.28142 14.3141 8.98369 14.6119 8.61642 14.6119L8.61641 13.2819ZM6.9492 4.34134L6.98852 5.00517C6.9589 5.00693 6.92919 5.0067 6.8996 5.00449L6.9492 4.34134ZM6.95016 13.9473L6.96064 14.6123H6.95016V13.9473ZM6.9788 13.9469L6.97339 13.2819H6.97879L6.9788 13.9469ZM6.97559 13.9469L6.96512 13.282L6.97019 13.2819L6.97559 13.9469ZM6.97213 4.3403L6.94666 3.67579C6.95308 3.67554 6.9595 3.67539 6.96592 3.67533L6.97213 4.3403ZM6.95685 4.34089L6.91752 3.6769L6.93138 3.67637L6.95685 4.34089ZM7.2028 8.56254L6.54536 8.46259L7.2028 8.56254ZM19.0728 14.6333V15.2983L19.069 15.2983L19.0728 14.6333ZM15.5647 14.6136V13.9486L15.5684 13.9486L15.5647 14.6136ZM13.5452 21.2145L12.9593 21.5292V21.5292L13.5452 21.2145ZM10.989 17.139L11.5218 16.7412V16.7412L10.989 17.139ZM8.32144 13.3568L8.87112 12.9826L8.32144 13.3568ZM14.6481 15.932L14.0012 16.0863L14.6481 15.932ZM15.4561 18.1456L16.0672 17.8834L16.0672 17.8834L15.4561 18.1456ZM19.7563 8.78541L19.2973 9.26668C19.0756 9.05527 19.027 8.71976 19.1797 8.45414L19.7563 8.78541ZM20.0263 7.15999L19.4075 7.40335L20.0263 7.15999ZM13.0674 3.35974L13.0822 4.02457L13.0674 3.35974ZM17.1579 3.41506L17.1158 4.07873H17.1158L17.1579 3.41506ZM19.134 4.61295L18.526 4.88234L19.134 4.61295ZM15.0977 21.9704L14.9667 21.3185L15.0977 21.9704ZM20.6597 12.9563L21.3246 12.9684L20.6597 12.9563ZM20.5615 10.3046L19.8971 10.3313L20.5615 10.3046ZM20.2761 11.8064L20.7777 11.3697L20.2761 11.8064ZM20.2169 11.4398L19.6236 11.1394L20.2169 11.4398ZM19.1004 6.07342L19.4888 5.53365L19.1004 6.07342ZM19.0608 5.95078L18.4305 5.73853L19.0608 5.95078ZM9.82233 5.00517H6.98616V3.67517H9.82233V5.00517ZM6.8996 5.00449C6.89964 5.00449 6.89839 5.00439 6.89578 5.00432C6.89318 5.00424 6.88951 5.00418 6.88471 5.00422C6.87501 5.0043 6.86187 5.00477 6.8452 5.00599C6.81159 5.00845 6.76779 5.01366 6.71461 5.02306C6.60797 5.04192 6.47357 5.07587 6.32129 5.13033C6.01633 5.23939 5.65691 5.42447 5.31471 5.71408C4.64981 6.2768 3.99508 7.27962 3.99508 9.05566H2.66508C2.66508 6.90373 3.48053 5.524 4.45551 4.69886C4.93323 4.29455 5.43618 4.03437 5.87344 3.878C6.29415 3.72754 6.70316 3.65608 6.9988 3.67819L6.8996 5.00449ZM3.99508 9.05566C3.99508 11.159 4.6174 12.1702 5.21411 12.6729C5.83296 13.1943 6.55719 13.2823 6.95016 13.2823V14.6123C6.39786 14.6123 5.31205 14.4945 4.35718 13.69C3.38016 12.8669 2.66508 11.4323 2.66508 9.05566H3.99508ZM6.93969 13.2824L6.96512 13.282L6.98607 14.6118L6.96064 14.6122L6.93969 13.2824ZM6.9842 14.6118L6.981 14.6119L6.97019 13.2819L6.97339 13.2819L6.9842 14.6118ZM6.99237 5.00514L6.97834 5.00527L6.96592 3.67533L6.97996 3.6752L6.99237 5.00514ZM6.90988 3.6775L6.91753 3.67705L6.99616 5.00472L6.98852 5.00517L6.90988 3.6775ZM6.9976 5.00481L6.98231 5.0054L6.93138 3.67637L6.94666 3.67579L6.9976 5.00481ZM19.069 15.2983L15.5609 15.2786L15.5684 13.9486L19.0765 13.9683L19.069 15.2983ZM12.9593 21.5292C12.3984 20.4847 11.3949 18.7943 10.4561 17.5368L11.5218 16.7412C12.5137 18.0697 13.5521 19.8217 14.1311 20.8999L12.9593 21.5292ZM10.4561 17.5368C9.59752 16.3869 8.55682 14.8841 7.77175 13.7311L8.87112 12.9826C9.65433 14.1329 10.6815 15.6156 11.5218 16.7412L10.4561 17.5368ZM15.2949 15.7777C15.4543 16.4459 15.8093 17.2823 16.0672 17.8834L14.845 18.4078C14.5978 17.8319 14.1921 16.8865 14.0012 16.0863L15.2949 15.7777ZM16.0672 17.8834C16.3445 18.5296 16.6265 19.2559 16.7422 20.1309L15.4236 20.3052C15.3324 19.6153 15.1094 19.0243 14.845 18.4078L16.0672 17.8834ZM19.4888 5.53365C19.6833 5.67358 20.3575 6.18505 20.6452 6.91663L19.4075 7.40335C19.3464 7.24815 19.2263 7.08312 19.0765 6.92836C18.9309 6.778 18.7855 6.66611 18.712 6.6132L19.4888 5.53365ZM13.0526 2.6949C13.8457 2.6772 14.5559 2.665 15.0111 2.665V3.995C14.5723 3.995 13.8753 4.00687 13.0822 4.02457L13.0526 2.6949ZM15.0111 2.665C15.6761 2.665 16.5243 2.70858 17.2 2.75139L17.1158 4.07873C16.445 4.03622 15.6318 3.995 15.0111 3.995V2.665ZM7.79253 9.44172C7.79253 10.7085 8.16369 11.9436 8.87112 12.9826L7.77175 13.7311C6.90971 12.465 6.46253 10.9677 6.46253 9.44172H7.79253ZM15.2287 22.6224C14.2769 22.8136 13.4003 22.3502 12.9593 21.5292L14.1311 20.8999C14.3145 21.2415 14.629 21.3863 14.9667 21.3185L15.2287 22.6224ZM14.9667 21.3185C15.1349 21.2847 15.2488 21.1912 15.3297 21.0301C15.4191 20.852 15.4617 20.5929 15.4236 20.3052L16.7422 20.1309C16.8076 20.6257 16.7508 21.1638 16.5184 21.6268C16.2775 22.1067 15.847 22.4982 15.2287 22.6224L14.9667 21.3185ZM15.5647 15.2786C15.4555 15.2786 15.39 15.322 15.3443 15.3905C15.2912 15.4701 15.2543 15.6074 15.2949 15.7777L14.0012 16.0863C13.882 15.5862 13.963 15.0644 14.238 14.6523C14.5203 14.2292 14.993 13.9486 15.5647 13.9486V15.2786ZM18.526 4.88234C18.3219 4.42168 17.7458 4.11865 17.1158 4.07873L17.2 2.75139C18.0896 2.80778 19.2568 3.24858 19.742 4.34355L18.526 4.88234ZM6.54536 8.46259C7.05627 5.10204 9.77738 2.76799 13.0526 2.6949L13.0822 4.02457C10.4516 4.08328 8.27383 5.94214 7.86025 8.66249L6.54536 8.46259ZM19.0728 13.9683C19.5268 13.9683 19.9837 13.5531 19.9948 12.9442L21.3246 12.9684C21.3021 14.2061 20.3444 15.2983 19.0728 15.2983V13.9683ZM20.7777 11.3697C21.0309 11.6606 21.3388 12.1856 21.3246 12.9684L19.9948 12.9442C20.002 12.551 19.8547 12.3351 19.7746 12.243L20.7777 11.3697ZM21.226 10.2779C21.2383 10.5845 21.1549 10.8931 21.0755 11.1228C20.9916 11.3653 20.8876 11.5874 20.8102 11.7402L19.6236 11.1394C19.6858 11.0167 19.7614 10.8531 19.8186 10.6879C19.8802 10.5099 19.8994 10.3887 19.8971 10.3313L21.226 10.2779ZM19.7563 8.78541C20.2152 8.30414 20.2153 8.30426 20.2154 8.30438C20.2155 8.30443 20.2156 8.30455 20.2157 8.30464C20.2159 8.30481 20.2161 8.305 20.2163 8.3052C20.2167 8.3056 20.2172 8.30604 20.2177 8.30653C20.2187 8.30751 20.2199 8.30868 20.2213 8.31003C20.2241 8.31274 20.2276 8.31618 20.2318 8.32033C20.2403 8.32864 20.2515 8.33983 20.2651 8.35373C20.2922 8.38148 20.3291 8.42029 20.3726 8.46876C20.459 8.56505 20.5745 8.70284 20.692 8.87081C20.9138 9.18785 21.2026 9.69593 21.226 10.2779L19.8971 10.3313C19.889 10.132 19.7752 9.88047 19.6022 9.63323C19.5223 9.51907 19.4424 9.42355 19.3827 9.35707C19.3532 9.32415 19.3294 9.29921 19.3141 9.28356C19.3065 9.27575 19.301 9.27033 19.2981 9.26744C19.2966 9.266 19.2958 9.2652 19.2957 9.26507C19.2956 9.265 19.2957 9.2651 19.296 9.26537C19.2961 9.2655 19.2963 9.26567 19.2965 9.26589C19.2966 9.266 19.2968 9.26612 19.2969 9.26625C19.297 9.26632 19.2971 9.26642 19.2971 9.26646C19.2972 9.26656 19.2973 9.26668 19.7563 8.78541ZM20.6452 6.91663C20.866 7.47821 20.7403 8.06991 20.6266 8.43013C20.5649 8.62545 20.4938 8.79242 20.4383 8.91053C20.4104 8.9701 20.3857 9.01858 20.3673 9.05353C20.3581 9.07104 20.3504 9.08525 20.3446 9.09585C20.3416 9.10116 20.3392 9.10557 20.3372 9.10905C20.3362 9.11079 20.3354 9.1123 20.3347 9.11357C20.3343 9.11421 20.334 9.11479 20.3337 9.11531C20.3335 9.11557 20.3334 9.11581 20.3332 9.11604C20.3332 9.11616 20.3331 9.11632 20.3331 9.11637C20.333 9.11653 20.3329 9.11668 19.7563 8.78541C19.1797 8.45414 19.1796 8.45428 19.1795 8.45443C19.1795 8.45447 19.1794 8.45461 19.1793 8.45469C19.1792 8.45487 19.1791 8.45502 19.1791 8.45517C19.1789 8.45546 19.1788 8.4557 19.1787 8.45588C19.1784 8.45624 19.1784 8.4564 19.1784 8.45634C19.1785 8.45622 19.179 8.45528 19.18 8.45353C19.1819 8.45004 19.1855 8.44339 19.1905 8.43387C19.2006 8.41476 19.216 8.38448 19.2344 8.34525C19.2718 8.26576 19.3187 8.15497 19.3583 8.02968C19.447 7.74866 19.4563 7.52764 19.4075 7.40335L20.6452 6.91663ZM19.742 4.34355C19.9152 4.73442 19.8975 5.16097 19.8587 5.45228C19.8174 5.76174 19.7358 6.02979 19.691 6.16304L18.4305 5.73853C18.4612 5.64744 18.5147 5.46871 18.5404 5.2764C18.5684 5.06595 18.5497 4.93575 18.526 4.88234L19.742 4.34355ZM6.46253 9.44172C6.46253 9.10072 6.49819 8.77285 6.54536 8.46259L7.86025 8.66249C7.81873 8.93558 7.79253 9.19167 7.79253 9.44172H6.46253ZM6.97879 13.2819L8.61641 13.2819L8.61642 14.6119L6.9788 14.6119L6.97879 13.2819ZM19.7746 12.243C19.5477 11.9824 19.418 11.5456 19.6236 11.1394L20.8102 11.7402C20.8547 11.6524 20.8564 11.5699 20.8465 11.514C20.8369 11.4596 20.8136 11.4109 20.7777 11.3697L19.7746 12.243ZM18.712 6.6132C18.4384 6.41635 18.3215 6.0622 18.4305 5.73853L19.691 6.16304C19.7697 5.92929 19.6853 5.67508 19.4888 5.53365L18.712 6.6132Z" fill="black"/>
</g>
</svg>
