<svg width="24" height="24" viewBox="0 0 24 24" fill="none" xmlns="http://www.w3.org/2000/svg">
<g id="msg_emoji_food">
<path id="Path 52" d="M4.33331 15.4168V18.1989C4.33331 19.0095 4.99044 19.6666 5.80104 19.6666H18.1989C19.0095 19.6666 19.6666 19.0095 19.6666 18.1989V15.3333" stroke="black" stroke-width="1.33333"/>
<rect id="Rectangle" x="2.99998" y="11" width="18" height="4.33333" rx="1.66667" stroke="black" stroke-width="1.33333"/>
<mask id="mask0_4266_10562" style="mask-type:luminance" maskUnits="userSpaceOnUse" x="0" y="1" width="23" height="11">
<rect id="Rectangle_2" x="0.666687" y="1.33331" width="21.6667" height="10.2741" rx="3.91393" fill="white"/>
</mask>
<g mask="url(#mask0_4266_10562)">
<path id="Path 46 Copy" fill-rule="evenodd" clip-rule="evenodd" d="M5.79144 17.2425C4.9846 17.2373 4.33331 16.5817 4.33331 15.7749V10.6666C4.33331 7.16884 7.16884 4.33331 10.6666 4.33331H13.3333C16.8311 4.33331 19.6666 7.16884 19.6666 10.6666V15.856C19.6666 16.6703 19.0037 17.329 18.1893 17.3236L5.79144 17.2425Z" stroke="black" stroke-width="1.33333"/>
<circle id="Oval" cx="8.83333" cy="8.16665" r="0.833333" fill="black"/>
<circle id="Oval Copy" cx="12.0333" cy="7.16665" r="0.833333" fill="black"/>
<circle id="Oval Copy 2" cx="15.1667" cy="8.16665" r="0.833333" fill="black"/>
</g>
</g>
</svg>
