<svg xmlns="http://www.w3.org/2000/svg" width="32" height="32"><path d="M16,3.556C22.868,3.556 28.444,9.132 28.444,16C28.444,22.868 22.868,28.444 16,28.444C9.132,28.444 3.556,22.868 3.556,16C3.556,9.132 9.132,3.556 16,3.556ZM16,5.333C10.113,5.333 5.333,10.113 5.333,16C5.333,21.887 10.113,26.667 16,26.667C21.887,26.667 26.667,21.887 26.667,16C26.667,10.113 21.887,5.333 16,5.333ZM11.556,17.111C10.942,17.111 10.444,16.613 10.444,16C10.444,15.387 10.942,14.889 11.556,14.889L20.445,14.889C21.058,14.889 21.556,15.387 21.556,16C21.556,16.613 21.058,17.111 20.445,17.111L11.556,17.111Z"/>
</svg>
