<svg width="24" height="24" viewBox="0 0 24 24" fill="none" xmlns="http://www.w3.org/2000/svg">
<g id="msg_emoji_angry">
<path id="Union" fill-rule="evenodd" clip-rule="evenodd" d="M3.99996 12C3.99996 7.58168 7.58168 3.99996 12 3.99996C16.4182 3.99996 20 7.58168 20 12C20 16.4182 16.4182 20 12 20C7.58168 20 3.99996 16.4182 3.99996 12ZM12 2.66663C6.8453 2.66663 2.66663 6.8453 2.66663 12C2.66663 17.1546 6.8453 21.3333 12 21.3333C17.1546 21.3333 21.3333 17.1546 21.3333 12C21.3333 6.8453 17.1546 2.66663 12 2.66663ZM13.237 10.9474C13.1778 10.9632 13.0238 10.89 13.011 10.862C12.9348 10.6948 13.1144 9.46441 14.2582 8.88496C15.4021 8.3055 16.8627 8.55532 16.9553 8.75851C16.9761 8.80411 17.0444 9.15413 16.9553 9.20359C16.8214 9.27793 16.5613 9.32805 16.2508 9.3879C15.8473 9.46565 15.3587 9.55982 14.9505 9.74488C14.5073 9.94587 14.1075 10.2842 13.7911 10.5519C13.5539 10.7527 13.3636 10.9137 13.237 10.9474ZM10.9889 10.862C10.9762 10.89 10.8222 10.9632 10.7629 10.9474C10.6364 10.9137 10.4461 10.7526 10.2089 10.5519L10.2089 10.5519C9.8925 10.2842 9.49268 9.94584 9.04943 9.74485C8.64132 9.5598 8.15266 9.46562 7.74922 9.38788L7.74921 9.38787C7.43867 9.32803 7.17861 9.27791 7.04465 9.20357C6.95553 9.15411 7.02387 8.80408 7.04465 8.75849C7.13723 8.5553 8.77711 8.29271 9.92092 8.87216C11.0647 9.45162 11.0651 10.6948 10.9889 10.862ZM14.6667 13C15.219 13 15.6667 12.4777 15.6667 11.8333C15.6667 11.189 15.219 10.6667 14.6667 10.6667C14.1144 10.6667 13.6667 11.189 13.6667 11.8333C13.6667 12.4777 14.1144 13 14.6667 13ZM10.3333 11.8333C10.3333 12.4777 9.88558 13 9.33329 13C8.78101 13 8.33329 12.4777 8.33329 11.8333C8.33329 11.189 8.78101 10.6667 9.33329 10.6667C9.88558 10.6667 10.3333 11.189 10.3333 11.8333ZM16.3333 16.3835C16.3333 15.3752 14.3932 14.3334 11.9999 14.3334C9.60671 14.3334 7.66661 15.3752 7.66661 16.3835C7.66661 16.6515 7.85471 16.5786 8.30934 16.4023C8.94568 16.1556 10.1042 15.7065 11.9999 15.7065C13.8957 15.7065 15.0542 16.1556 15.6905 16.4023C16.1452 16.5786 16.3333 16.6515 16.3333 16.3835Z" fill="black"/>
</g>
</svg>
