<svg xmlns="http://www.w3.org/2000/svg" width="32" height="32"><path d="M4,15.333L4,12.889C4,10.68 5.791,8.889 8,8.889L9.556,8.889L9.556,7.778C9.556,5.814 11.147,4.222 13.111,4.222L18.889,4.222C20.853,4.222 22.444,5.814 22.444,7.778L22.444,8.889L24,8.889C26.209,8.889 28,10.68 28,12.889L28,15.333L28,17.111L28,23.555C28,25.765 26.209,27.556 24,27.556L8,27.556C5.791,27.556 4,25.765 4,23.555L4,17.111L4,15.333ZM5.778,17.111L5.778,23.555C5.778,24.783 6.773,25.778 8,25.778L24,25.778C25.227,25.778 26.222,24.783 26.222,23.555L26.222,17.111L5.778,17.111ZM11.333,8.889L20.667,8.889L20.667,7.778C20.667,6.796 19.871,6 18.889,6L13.111,6C12.129,6 11.333,6.796 11.333,7.778L11.333,8.889ZM26.222,15.333L26.222,12.889C26.222,11.662 25.227,10.667 24,10.667L8,10.667C6.773,10.667 5.778,11.662 5.778,12.889L5.778,15.333L26.222,15.333Z"/>
</svg>
