<svg width="24" height="24" viewBox="0 0 24 24" fill="none" xmlns="http://www.w3.org/2000/svg">
<g id="msg_emoji_haha">
<path id="Union" fill-rule="evenodd" clip-rule="evenodd" d="M3.99999 12C3.99999 7.58168 7.58171 3.99996 12 3.99996C16.4183 3.99996 20 7.58168 20 12C20 16.4182 16.4183 20 12 20C7.58171 20 3.99999 16.4182 3.99999 12ZM12 2.66663C6.84533 2.66663 2.66666 6.8453 2.66666 12C2.66666 17.1546 6.84533 21.3333 12 21.3333C17.1546 21.3333 21.3333 17.1546 21.3333 12C21.3333 6.8453 17.1546 2.66663 12 2.66663ZM14.7167 11.3333C15.2966 11.3333 15.7667 10.811 15.7667 10.1666C15.7667 9.52231 15.2966 8.99998 14.7167 8.99998C14.1368 8.99998 13.6667 9.52231 13.6667 10.1666C13.6667 10.811 14.1368 11.3333 14.7167 11.3333ZM10.3667 10.1666C10.3667 10.811 9.89657 11.3333 9.31667 11.3333C8.73677 11.3333 8.26667 10.811 8.26667 10.1666C8.26667 9.52231 8.73677 8.99998 9.31667 8.99998C9.89657 8.99998 10.3667 9.52231 10.3667 10.1666ZM16.3974 13.1252C15.2788 13.3927 13.7214 13.7652 11.999 13.7652C10.2766 13.7652 8.71919 13.3927 7.60058 13.1252L7.60055 13.1252C6.50793 12.8639 5.83399 12.7028 5.83399 13.0866C5.83399 16.4914 8.59416 19.2516 11.999 19.2516C15.4038 19.2516 18.164 16.4914 18.164 13.0866C18.164 12.7028 17.4901 12.8639 16.3974 13.1252L16.3974 13.1252ZM15.8089 14.3284L15.8089 14.3284C16.5247 14.1411 16.9236 14.0367 16.9236 14.2826C16.9236 16.6422 13.5033 16.7486 11.9916 16.7486C10.6452 16.7486 7.0596 16.6426 7.0596 14.2826C7.0596 14.0367 7.45846 14.1411 8.17431 14.3284L8.17432 14.3284C9.03551 14.5537 10.3555 14.8991 11.9916 14.8991C13.6277 14.8991 14.9477 14.5537 15.8089 14.3284Z" fill="black"/>
</g>
</svg>
