<svg xmlns="http://www.w3.org/2000/svg" width="32" height="32"><path d="M28.444,16C28.444,21.755 24.538,26.597 19.233,28.02C18.462,28.757 17.423,29.212 16.267,29.212C15.203,29.212 14.238,28.827 13.49,28.191C7.82,27.03 3.556,22.013 3.556,16C3.556,9.127 9.127,3.556 16,3.556C22.873,3.556 28.444,9.127 28.444,16ZM5.333,16C5.333,20.504 8.125,24.356 12.073,25.92C11.982,25.565 11.933,25.194 11.933,24.812L11.933,23.098C10.349,22.455 9.333,21.372 9.333,19.827C9.333,18.843 10.344,19.097 11.923,19.495C13.101,19.791 14.596,20.167 16.222,20.167C17.848,20.167 19.343,19.791 20.521,19.495C22.1,19.097 23.111,18.843 23.111,19.827C23.111,21.343 22.133,22.414 20.6,23.061L20.6,24.812C20.6,25.103 20.572,25.389 20.518,25.665C24.151,23.964 26.667,20.276 26.667,16C26.667,10.109 21.891,5.333 16,5.333C10.109,5.333 5.333,10.109 5.333,16ZM18.139,14.99C17.577,14.614 17.625,13.772 18.227,13.462L22.243,11.39C22.507,11.254 22.763,11.587 22.563,11.806L20.887,13.652C20.619,13.948 20.58,14.386 20.793,14.724L22.357,17.205C22.51,17.448 22.222,17.729 21.983,17.568L18.139,14.99ZM13.773,13.462C14.375,13.772 14.423,14.614 13.861,14.99L10.017,17.568C9.778,17.729 9.49,17.448 9.643,17.205L11.207,14.724C11.42,14.386 11.381,13.948 11.113,13.652L9.437,11.806C9.237,11.587 9.493,11.254 9.757,11.39L13.773,13.462ZM13.919,21.289C13.639,21.244 13.378,21.457 13.378,21.741L13.378,24.968C13.378,26.563 14.671,27.857 16.267,27.857C17.862,27.857 19.156,26.563 19.156,24.968L19.156,21.734C19.156,21.453 18.898,21.24 18.62,21.284C18.058,21.373 17.131,21.492 16.222,21.492C15.332,21.492 14.458,21.377 13.919,21.289Z"/></svg>