<svg xmlns="http://www.w3.org/2000/svg" width="32" height="32"><path d="M4.889,21.033C3.838,20.534 3.111,19.462 3.111,18.222L3.111,16.889C3.111,15.648 3.839,14.577 4.89,14.077C4.967,8.989 9.116,4.889 14.222,4.889L17.778,4.889C22.884,4.889 27.032,8.989 27.11,14.077C28.161,14.576 28.889,15.648 28.889,16.889L28.889,18.222C28.889,19.462 28.162,20.534 27.111,21.034L27.111,24.265C27.111,25.837 25.837,27.111 24.265,27.111L7.735,27.111C6.163,27.111 4.889,25.837 4.889,24.265L4.889,21.033ZM25.32,13.778C25.09,9.812 21.801,6.667 17.778,6.667L14.222,6.667C10.199,6.667 6.909,9.812 6.679,13.778L25.32,13.778ZM11.778,9.778C12.391,9.778 12.889,10.276 12.889,10.889C12.889,11.502 12.391,12 11.778,12C11.165,12 10.667,11.502 10.667,10.889C10.667,10.276 11.165,9.778 11.778,9.778ZM20.222,9.778C20.836,9.778 21.333,10.276 21.333,10.889C21.333,11.502 20.836,12 20.222,12C19.609,12 19.111,11.502 19.111,10.889C19.111,10.276 19.609,9.778 20.222,9.778ZM16.044,8.444C16.658,8.444 17.156,8.942 17.156,9.556C17.156,10.169 16.658,10.667 16.044,10.667C15.431,10.667 14.933,10.169 14.933,9.556C14.933,8.942 15.431,8.444 16.044,8.444ZM6.667,15.556L6.667,19.556L25.333,19.556L25.333,15.556L6.667,15.556ZM6.667,23.672L6.667,24.265C6.667,24.855 7.145,25.333 7.735,25.333L24.265,25.333C24.855,25.333 25.333,24.855 25.333,24.265L25.333,23.78C24.998,23.916 24.631,23.99 24.247,23.987L7.716,23.879C7.345,23.876 6.991,23.803 6.667,23.672ZM6.709,21.333C6.838,21.775 7.245,22.098 7.728,22.101L24.258,22.209C24.785,22.213 25.225,21.834 25.316,21.333L6.709,21.333Z"/>
</svg>
