<svg xmlns="http://www.w3.org/2000/svg" width="32" height="32"><path d="M26.021,6.163L21.11,6.163C20.595,6.163 20.176,5.744 20.176,5.229C20.176,4.714 20.595,4.296 21.11,4.296L27.251,4.296L27.63,4.352L27.967,4.512L28.233,4.748L28.419,5.038L28.523,5.367L28.535,5.723L28.442,6.083L28.243,6.411L22.607,13.185L27.613,13.185C28.128,13.185 28.546,13.603 28.546,14.118C28.546,14.633 28.128,15.052 27.613,15.052L21.377,15.052L20.998,14.995L20.662,14.836L20.396,14.599L20.209,14.309L20.106,13.98L20.094,13.625L20.187,13.264L20.386,12.937L26.021,6.163ZM7.524,22.04L5.352,22.04C4.836,22.04 4.418,21.622 4.418,21.106C4.418,20.591 4.836,20.173 5.352,20.173L9.017,20.173L9.359,20.224L9.664,20.368L9.905,20.583L10.073,20.844L10.167,21.142L10.178,21.464L10.094,21.791L9.914,22.086L6.88,25.733L9.189,25.733C9.704,25.733 10.122,26.152 10.122,26.667C10.122,27.182 9.704,27.6 9.189,27.6L5.387,27.6L5.045,27.549L4.74,27.405L4.499,27.19L4.33,26.929L4.237,26.632L4.226,26.309L4.31,25.982L4.49,25.687L7.524,22.04ZM15.901,14.607L12.753,14.607C12.238,14.607 11.82,14.189 11.82,13.674C11.82,13.159 12.238,12.74 12.753,12.74L17.238,12.74L17.594,12.793L17.911,12.941L18.163,13.162L18.341,13.434L18.442,13.742L18.457,14.076L18.375,14.417L18.194,14.727L14.23,19.691L17.443,19.691C17.958,19.691 18.376,20.109 18.376,20.624C18.376,21.139 17.958,21.557 17.443,21.557L12.893,21.557L12.538,21.505L12.22,21.357L11.969,21.136L11.791,20.864L11.69,20.556L11.674,20.222L11.756,19.881L11.937,19.57L15.901,14.607Z"/>
</svg>
