<svg xmlns="http://www.w3.org/2000/svg" width="32" height="32"><path d="M16,27.881C15.6,27.881 14.989,27.628 14.493,27.324C14.487,27.321 14.482,27.317 14.476,27.314C7.894,23.075 3.78,18.03 3.78,12.991C3.78,8.329 7.045,5.113 11.096,5.113C13.166,5.113 14.834,6.027 16.003,7.484C17.182,6.02 18.843,5.113 20.915,5.113C24.967,5.113 28.22,8.329 28.22,12.991C28.22,18.03 24.106,23.075 17.524,27.314L17.518,27.317C17.034,27.624 16.419,27.881 16,27.881ZM16.003,26.098C16.093,26.06 16.404,25.923 16.568,25.82C22.529,21.98 26.447,17.556 26.447,12.991C26.447,9.416 24.022,6.887 20.915,6.887C19.03,6.887 17.631,7.948 16.778,9.51C16.623,9.796 16.323,9.974 15.997,9.972C15.671,9.971 15.373,9.792 15.219,9.505C14.386,7.954 12.979,6.887 11.096,6.887C7.989,6.887 5.553,9.416 5.553,12.991C5.553,17.554 9.469,21.977 15.431,25.819C15.605,25.924 15.912,26.059 16.003,26.098Z"/></svg>
