<svg width="24" height="24" viewBox="0 0 24 24" fill="none" xmlns="http://www.w3.org/2000/svg">
<g id="msg_emoji_neutral">
<path id="Union" fill-rule="evenodd" clip-rule="evenodd" d="M3.99996 12C3.99996 7.58168 7.58168 3.99996 12 3.99996C16.4182 3.99996 20 7.58168 20 12C20 16.4182 16.4182 20 12 20C7.58168 20 3.99996 16.4182 3.99996 12ZM12 2.66663C6.8453 2.66663 2.66663 6.8453 2.66663 12C2.66663 17.1546 6.8453 21.3333 12 21.3333C17.1546 21.3333 21.3333 17.1546 21.3333 12C21.3333 6.8453 17.1546 2.66663 12 2.66663ZM14.7167 11.6666C15.2966 11.6666 15.7667 11.1443 15.7667 10.5C15.7667 9.85563 15.2966 9.33329 14.7167 9.33329C14.1368 9.33329 13.6667 9.85563 13.6667 10.5C13.6667 11.1443 14.1368 11.6666 14.7167 11.6666ZM10.3666 10.5C10.3666 11.1443 9.89654 11.6666 9.31664 11.6666C8.73674 11.6666 8.26664 11.1443 8.26664 10.5C8.26664 9.85563 8.73674 9.33329 9.31664 9.33329C9.89654 9.33329 10.3666 9.85563 10.3666 10.5ZM8.26664 14.1485C7.89845 14.1485 7.59998 14.447 7.59998 14.8152C7.59998 15.1834 7.89845 15.4819 8.26664 15.4819H15.7666C16.1348 15.4819 16.4333 15.1834 16.4333 14.8152C16.4333 14.447 16.1348 14.1485 15.7666 14.1485H8.26664Z" fill="black"/>
</g>
</svg>
