<svg xmlns="http://www.w3.org/2000/svg" width="32" height="32"><path d="M16,3.556C22.873,3.556 28.444,9.127 28.444,16C28.444,22.873 22.873,28.444 16,28.444C9.127,28.444 3.556,22.873 3.556,16C3.556,9.127 9.127,3.556 16,3.556ZM5.333,16C5.333,21.891 10.109,26.667 16,26.667C21.891,26.667 26.667,21.891 26.667,16C26.667,10.109 21.891,5.333 16,5.333C10.109,5.333 5.333,10.109 5.333,16ZM13.822,14C13.822,14.859 13.195,15.555 12.422,15.555C11.649,15.555 11.022,14.859 11.022,14C11.022,13.141 11.649,12.444 12.422,12.444C13.195,12.444 13.822,13.141 13.822,14ZM19.622,15.555C18.849,15.555 18.222,14.859 18.222,14C18.222,13.141 18.849,12.444 19.622,12.444C20.395,12.444 21.022,13.141 21.022,14C21.022,14.859 20.395,15.555 19.622,15.555ZM11.022,18.865L21.022,18.865C21.513,18.865 21.911,19.263 21.911,19.754C21.911,20.245 21.513,20.643 21.022,20.643L11.022,20.643C10.531,20.643 10.133,20.245 10.133,19.754C10.133,19.263 10.531,18.865 11.022,18.865Z"/></svg>