<svg xmlns="http://www.w3.org/2000/svg" width="32" height="32"><path d="M5.245,18.305L4.444,18.305C3.954,18.305 3.556,17.907 3.556,17.416C3.556,16.926 3.954,16.527 4.444,16.527L23.457,16.527L23.457,5.778C23.457,4.55 22.462,3.556 21.235,3.556L19.148,3.556C18.541,3.556 18.114,3.672 17.815,3.899C17.47,4.161 17.306,4.541 17.191,4.929C18.084,5.091 18.747,5.444 19.246,5.87C20.293,6.763 20.623,8.017 20.716,8.75L20.72,9.047L20.657,9.334L20.534,9.593L20.364,9.812L20.156,9.988L19.92,10.116L19.662,10.195L19.39,10.222L12.789,10.222L12.518,10.195L12.261,10.117L12.025,9.989L11.817,9.814L11.647,9.596L11.524,9.338L11.46,9.052L11.463,8.755C11.552,8.022 11.877,6.766 12.922,5.872C13.49,5.385 14.273,4.992 15.368,4.872C15.588,3.994 15.944,3.087 16.741,2.482C17.285,2.07 18.042,1.778 19.148,1.778L21.235,1.778C23.444,1.778 25.235,3.569 25.235,5.778L25.235,16.527L27.333,16.527C27.824,16.527 28.222,16.926 28.222,17.416C28.222,17.907 27.824,18.305 27.333,18.305L26.598,18.305C26.478,21.679 25.656,23.985 24.226,25.284L25.169,27.155C25.39,27.594 25.214,28.129 24.776,28.349C24.337,28.57 23.803,28.394 23.582,27.955L22.702,26.21C22.085,26.44 21.399,26.554 20.65,26.554L11.324,26.554C10.647,26.554 10.021,26.465 9.449,26.287L8.56,27.97C8.331,28.404 7.793,28.571 7.359,28.342C6.926,28.113 6.759,27.575 6.988,27.141L7.875,25.46C6.284,24.199 5.374,21.836 5.245,18.305ZM24.821,18.305L7.023,18.305C7.177,22.54 8.481,24.776 11.324,24.776L20.65,24.776C23.42,24.776 24.673,22.538 24.821,18.305ZM13.331,8.444L18.846,8.444C18.731,8.045 18.515,7.582 18.093,7.222C17.66,6.853 17.016,6.612 16.084,6.612C15.152,6.612 14.509,6.853 14.078,7.222C13.658,7.582 13.443,8.045 13.331,8.444ZM13.778,13.963C13.778,14.453 13.379,14.851 12.889,14.851C12.398,14.851 12,14.453 12,13.963L12,12.185C12,11.694 12.398,11.296 12.889,11.296C13.379,11.296 13.778,11.694 13.778,12.185L13.778,13.963ZM16.771,13.963C16.771,14.453 16.373,14.851 15.882,14.851C15.392,14.851 14.994,14.453 14.994,13.963L14.994,12.185C14.994,11.694 15.392,11.296 15.882,11.296C16.373,11.296 16.771,11.694 16.771,12.185L16.771,13.963ZM19.778,13.963C19.778,14.453 19.38,14.851 18.889,14.851C18.398,14.851 18,14.453 18,13.963L18,12.185C18,11.694 18.398,11.296 18.889,11.296C19.38,11.296 19.778,11.694 19.778,12.185L19.778,13.963Z"/>
</svg>
