<svg xmlns="http://www.w3.org/2000/svg" width="32" height="32"><path d="M11.915,12.65C10.9,13.107 10.13,13.854 9.69,14.348C9.187,14.913 8.382,15.159 7.649,14.969C7.185,14.849 6.522,14.692 6.05,14.854C5.728,14.964 5.436,15.187 5.2,15.4L4.881,15.616L4.534,15.736L4.182,15.764L3.835,15.707L3.504,15.559L3.208,15.313L2.987,14.967L2.883,14.556C2.643,11.846 2.814,5.26 8.944,3.116C15.247,0.911 20.024,6.288 21.549,8.37L21.728,8.709L21.802,9.075L21.772,9.431L21.654,9.753L21.465,10.03L21.211,10.254L20.901,10.412L20.549,10.489C20.115,10.526 19.558,10.601 19.068,10.769C18.49,10.967 17.985,11.35 17.683,11.608C17.28,11.952 16.754,12.133 16.226,12.094C15.676,12.054 14.678,12.017 13.628,12.175L15.76,20.01C19.673,20.043 23.148,21.019 25.422,22.496C25.834,22.763 25.951,23.314 25.684,23.725C25.416,24.137 24.865,24.254 24.454,23.987C22.37,22.633 19.155,21.787 15.556,21.787C11.846,21.787 8.993,22.679 7.314,24.12C6.33,24.964 5.778,25.994 5.778,27.121C5.778,27.611 5.379,28.01 4.889,28.01C4.398,28.01 4,27.611 4,27.121C4,25.498 4.74,23.987 6.156,22.771C7.823,21.34 10.483,20.312 13.932,20.066L11.915,12.65ZM8.198,5.355C4.782,7.345 4.461,11.403 4.562,13.697C4.848,13.498 5.161,13.326 5.489,13.214C6.058,13.019 6.802,13.049 7.455,13.158C7.169,12.258 6.902,10.891 7.166,9.326C7.446,7.67 7.902,6.203 8.198,5.355ZM8.887,12.683C9.566,12.027 10.559,11.259 11.778,10.842C12.94,10.445 14.219,10.337 15.205,10.33C14.769,9.563 14.019,8.396 13.027,7.426C12.004,6.425 10.635,5.771 9.778,5.428C9.545,6.049 8.976,7.68 8.656,9.578C8.441,10.852 8.66,11.963 8.887,12.683ZM16.796,10.095C17.226,9.759 17.834,9.359 18.507,9.129C18.901,8.994 19.328,8.903 19.728,8.842C18.297,7.042 15.199,3.879 11.122,4.374C12.048,4.811 13.181,5.463 14.084,6.345C15.441,7.672 16.394,9.327 16.796,10.095ZM9.033,27.236C8.646,27.022 8.506,26.535 8.72,26.148C8.934,25.762 9.421,25.622 9.808,25.836C10.233,26.071 10.547,26.405 10.855,26.735C11.089,26.985 11.301,27.261 11.745,27.261C12.459,27.261 12.598,26.77 12.858,26.433C13.255,25.919 13.734,25.504 14.687,25.504C15.624,25.504 16.13,25.945 16.555,26.489C16.677,26.646 16.791,26.813 16.918,26.966C17.077,27.157 17.276,27.31 17.665,27.266C18.456,27.176 18.661,26.683 18.956,26.341C19.364,25.869 19.83,25.504 20.718,25.504C21.565,25.504 22.107,25.885 22.568,26.374C22.753,26.571 22.922,26.788 23.11,26.977C23.257,27.125 23.416,27.261 23.671,27.261C23.895,27.261 24.025,27.144 24.138,27.014C24.302,26.828 24.442,26.613 24.599,26.419C25.016,25.905 25.521,25.504 26.381,25.504C27.682,25.504 28.466,25.891 28.979,26.795C29.197,27.179 29.062,27.668 28.678,27.886C28.294,28.104 27.805,27.969 27.587,27.585C27.358,27.18 26.963,27.104 26.381,27.104C26.153,27.104 26.02,27.221 25.905,27.352C25.741,27.538 25.602,27.752 25.446,27.945C25.03,28.46 24.526,28.861 23.671,28.861C22.85,28.861 22.32,28.481 21.861,27.986C21.682,27.793 21.516,27.579 21.327,27.393C21.171,27.24 20.995,27.104 20.718,27.104C20.414,27.104 20.273,27.26 20.135,27.425C20.01,27.575 19.888,27.736 19.748,27.891C19.346,28.336 18.825,28.745 17.844,28.855C16.769,28.977 16.197,28.574 15.745,28.056C15.56,27.844 15.405,27.603 15.225,27.389C15.099,27.239 14.954,27.104 14.687,27.104C14.364,27.104 14.225,27.277 14.092,27.453C13.969,27.617 13.853,27.79 13.72,27.952C13.313,28.443 12.787,28.861 11.745,28.861C10.889,28.861 10.359,28.506 9.896,28.046C9.624,27.775 9.4,27.439 9.033,27.236Z"/>
</svg>
