<svg xmlns="http://www.w3.org/2000/svg" width="32" height="32"><path d="M16,3.556C22.873,3.556 28.444,9.127 28.444,16C28.444,22.873 22.873,28.444 16,28.444C9.127,28.444 3.556,22.873 3.556,16C3.556,9.127 9.127,3.556 16,3.556ZM5.333,16C5.333,21.891 10.109,26.667 16,26.667C21.891,26.667 26.667,21.891 26.667,16C26.667,10.109 21.891,5.333 16,5.333C10.109,5.333 5.333,10.109 5.333,16ZM13.778,15.778C13.778,16.637 13.181,17.333 12.444,17.333C11.708,17.333 11.111,16.637 11.111,15.778C11.111,14.919 11.708,14.222 12.444,14.222C13.181,14.222 13.778,14.919 13.778,15.778ZM19.556,17.333C18.819,17.333 18.222,16.637 18.222,15.778C18.222,14.919 18.819,14.222 19.556,14.222C20.292,14.222 20.889,14.919 20.889,15.778C20.889,16.637 20.292,17.333 19.556,17.333ZM17.649,14.597C17.57,14.618 17.365,14.52 17.348,14.483C17.246,14.26 17.486,12.619 19.011,11.847C20.536,11.074 22.484,11.407 22.607,11.678C22.635,11.739 22.726,12.206 22.607,12.271C22.429,12.371 22.082,12.437 21.668,12.517C21.13,12.621 20.478,12.746 19.934,12.993C19.343,13.261 18.81,13.712 18.388,14.069C18.072,14.337 17.818,14.552 17.649,14.597ZM21.778,21.845C21.778,22.202 21.527,22.105 20.921,21.87C20.072,21.541 18.528,20.942 16,20.942C13.472,20.942 11.928,21.541 11.079,21.87C10.473,22.105 10.222,22.202 10.222,21.845C10.222,20.5 12.809,19.111 16,19.111C19.191,19.111 21.778,20.5 21.778,21.845ZM14.652,14.483C14.635,14.52 14.43,14.618 14.351,14.597C14.182,14.552 13.928,14.337 13.612,14.069C13.19,13.712 12.657,13.261 12.066,12.993C11.522,12.746 10.87,12.621 10.332,12.517C9.918,12.437 9.571,12.371 9.393,12.271C9.274,12.205 9.365,11.739 9.393,11.678C9.516,11.407 11.703,11.057 13.228,11.83C14.753,12.602 14.753,14.26 14.652,14.483Z"/></svg>