<svg width="24" height="24" viewBox="0 0 24 24" fill="none" xmlns="http://www.w3.org/2000/svg">
<g id="msg_emoji_study" clip-path="url(#clip0_4266_10590)">
<path id="Path 2" fill-rule="evenodd" clip-rule="evenodd" d="M2.47863 10.7487C1.62047 10.2862 1.61284 9.05785 2.46519 8.58471L10.5123 4.11772C11.3894 3.63083 12.4572 3.63808 13.3276 4.13682L21.0748 8.5759C21.9142 9.05682 21.8984 10.2727 21.0468 10.7317L13.1065 15.0113C12.2578 15.4687 11.2361 15.4687 10.3874 15.0113L2.47863 10.7487Z" stroke="black" stroke-width="1.33333"/>
<path id="Path 3" d="M21.4855 10.1996L21.5964 15.183" stroke="black" stroke-width="1.33333" stroke-linecap="round"/>
<g id="Group">
<mask id="mask0_4266_10590" style="mask-type:luminance" maskUnits="userSpaceOnUse" x="-1" y="11" width="23" height="13">
<path id="Path 294" fill-rule="evenodd" clip-rule="evenodd" d="M0.852039 11.9944C1.19503 11.9944 11.9253 17.8282 11.9253 17.8282L21.5019 12.3262L20.7564 21.739L12.9979 23.3334L3.44437 21.739C3.44437 21.739 -0.333344 17.9924 -0.333344 17.8282C-0.333344 17.6639 0.50905 11.9944 0.852039 11.9944Z" fill="white"/>
</mask>
<g mask="url(#mask0_4266_10590)">
<path id="Path 293" d="M4.54034 13.3836V15.787C4.54034 16.3047 4.82742 16.7797 5.28576 17.0204L11.1534 20.1014C11.696 20.3863 12.3465 20.374 12.8779 20.0688L18.1686 17.0305C18.6012 16.7821 18.8679 16.3214 18.8679 15.8225V13.3836" stroke="black" stroke-width="1.33333" stroke-linecap="round"/>
</g>
</g>
</g>
<defs>
<clipPath id="clip0_4266_10590">
<rect width="24" height="24" fill="white"/>
</clipPath>
</defs>
</svg>
