<svg width="24" height="24" viewBox="0 0 24 24" fill="none" xmlns="http://www.w3.org/2000/svg">
<g id="msg_emoji_hi2">
<g id="Group 3">
<g id="Path 282">
<mask id="path-1-outside-1_4266_10547" maskUnits="userSpaceOnUse" x="1.66669" y="2.33331" width="20" height="19" fill="black">
<rect fill="white" x="1.66669" y="2.33331" width="20" height="19"/>
<path fill-rule="evenodd" clip-rule="evenodd" d="M17.7929 17.7164C18.8709 15.9647 18.2253 13.8186 18.5144 12.5347C18.7955 11.2869 19.2175 9.85574 19.6463 8.17899C19.8645 7.32608 18.2666 7.13138 17.7929 7.69487C17.1165 8.49954 16.4574 9.98648 16.1051 10.8549C16.0003 11.1132 15.6333 11.1348 15.5043 10.8876L12.0057 4.18422C11.7618 3.71686 11.1819 3.54059 10.7191 3.79316C10.2846 4.03032 10.1077 4.56328 10.3142 5.01316L12.6038 10.0011C12.7091 10.2305 12.3969 10.4186 12.2433 10.2183L8.1716 4.9072C7.88199 4.52943 7.33593 4.46922 6.97096 4.7748C6.64158 5.05058 6.57471 5.53105 6.81625 5.88629L10.5497 11.3771C10.694 11.5894 10.4071 11.8274 10.2252 11.6463L6.58898 8.02772C6.20826 7.64884 5.58586 7.67325 5.23597 8.08077C4.92745 8.44011 4.94055 8.97454 5.2663 9.31835L8.96157 13.2184C9.13622 13.4027 8.89769 13.6822 8.68818 13.5387L5.3601 11.2595C4.984 11.0019 4.47286 11.0782 4.18842 11.4345C3.89697 11.7995 3.94569 12.3295 4.29879 12.6352L11.1366 18.5562C11.1366 18.5562 15.2701 21.8157 17.7929 17.7164Z"/>
</mask>
<path fill-rule="evenodd" clip-rule="evenodd" d="M17.7929 17.7164C18.8709 15.9647 18.2253 13.8186 18.5144 12.5347C18.7955 11.2869 19.2175 9.85574 19.6463 8.17899C19.8645 7.32608 18.2666 7.13138 17.7929 7.69487C17.1165 8.49954 16.4574 9.98648 16.1051 10.8549C16.0003 11.1132 15.6333 11.1348 15.5043 10.8876L12.0057 4.18422C11.7618 3.71686 11.1819 3.54059 10.7191 3.79316C10.2846 4.03032 10.1077 4.56328 10.3142 5.01316L12.6038 10.0011C12.7091 10.2305 12.3969 10.4186 12.2433 10.2183L8.1716 4.9072C7.88199 4.52943 7.33593 4.46922 6.97096 4.7748C6.64158 5.05058 6.57471 5.53105 6.81625 5.88629L10.5497 11.3771C10.694 11.5894 10.4071 11.8274 10.2252 11.6463L6.58898 8.02772C6.20826 7.64884 5.58586 7.67325 5.23597 8.08077C4.92745 8.44011 4.94055 8.97454 5.2663 9.31835L8.96157 13.2184C9.13622 13.4027 8.89769 13.6822 8.68818 13.5387L5.3601 11.2595C4.984 11.0019 4.47286 11.0782 4.18842 11.4345C3.89697 11.7995 3.94569 12.3295 4.29879 12.6352L11.1366 18.5562C11.1366 18.5562 15.2701 21.8157 17.7929 17.7164Z" stroke="black" stroke-width="2.66667" mask="url(#path-1-outside-1_4266_10547)"/>
</g>
<path id="Path" d="M15.6014 10.3076C15.4101 10.684 15.2266 11.0628 15.0512 11.4443C14.9229 11.723 14.7839 12.0145 14.6776 12.2756" stroke="black" stroke-width="1.33333" stroke-linecap="round"/>
<path id="Path 289" d="M9.92499 5.69244L12.3811 9.85553" stroke="black" stroke-linecap="round"/>
<path id="Path 290" d="M7.35724 7.8288L10.48 11.4442" stroke="black" stroke-linecap="round"/>
<path id="Path 290 Copy" d="M5.52478 10.6973L8.91862 13.3714" stroke="black" stroke-linecap="round"/>
</g>
</g>
</svg>
