<svg width="24" height="24" viewBox="0 0 24 24" fill="none" xmlns="http://www.w3.org/2000/svg">
<g id="msg_emoji_vacation3">
<path id="Path" d="M18.7036 17.4309C17.0545 16.36 14.5151 15.6738 11.6667 15.6738C6.69609 15.6738 3.66666 17.7632 3.66666 20.3405" stroke="black" stroke-width="1.33333" stroke-linecap="round"/>
<g id="Group">
<path id="Path_2" fill-rule="evenodd" clip-rule="evenodd" d="M2.80948 10.8597C2.83677 11.1687 3.23448 11.274 3.46516 11.0666C3.70364 10.8522 4.00255 10.6364 4.32726 10.5253C4.79042 10.3669 5.44406 10.4795 5.89964 10.5974C6.21649 10.6795 6.56439 10.573 6.78206 10.3286C7.20737 9.85102 7.99969 9.1034 9.04397 8.74629C10.2253 8.34232 11.5837 8.37657 12.2162 8.42249C12.4427 8.43893 12.6674 8.35889 12.8402 8.21152C13.1127 7.97909 13.5699 7.63976 14.0909 7.4616C14.51 7.3183 14.9854 7.2508 15.3569 7.21913C15.6354 7.19541 15.8024 6.8873 15.6372 6.66186C14.5795 5.21798 11.2948 1.42145 6.92273 2.95036C2.70141 4.42655 2.6446 8.99354 2.80948 10.8597Z" stroke="black" stroke-width="1.3" stroke-linecap="round"/>
<path id="Path 2" d="M6.4322 10.4375C6.4322 10.4375 5.61527 8.97511 5.9334 7.08904C6.25154 5.20297 6.88666 3.6557 6.88666 3.6557" stroke="black" stroke-width="1.13333" stroke-linecap="round"/>
<path id="Path 3" d="M12.2424 8.12779C12.2424 8.12779 11.4651 6.43352 10.1668 5.16404C8.8685 3.89457 6.88666 3.3114 6.88666 3.3114" stroke="black" stroke-width="1.13333" stroke-linecap="round"/>
</g>
<path id="Path 4" d="M9.39215 8.62341L11.329 15.7435" stroke="black" stroke-width="1.33333" stroke-linecap="round"/>
<path id="Path_3" d="M7.06512 19.9017C7.71739 20.2627 7.91187 21.0454 8.80905 21.0454C10.1502 21.0454 9.8423 19.7282 11.0152 19.7282C12.1882 19.7282 11.9662 21.1979 13.316 21.0454C14.6658 20.8929 14.4427 19.7282 15.5384 19.7282C16.634 19.7282 16.7037 21.0454 17.7534 21.0454C18.8032 21.0454 18.7274 19.7282 19.7857 19.7282C20.4912 19.7282 20.9341 19.9017 21.2124 20.3924" stroke="black" stroke-width="1.2" stroke-linecap="round"/>
</g>
</svg>
