<svg xmlns="http://www.w3.org/2000/svg" width="32" height="32"><path d="M3.553,12.074C3.553,9.205 4.641,7.365 5.941,6.265C6.578,5.726 7.248,5.379 7.831,5.171C8.36,4.982 8.875,4.886 9.262,4.901C9.271,4.901 9.279,4.901 9.288,4.901L9.307,4.9L9.315,4.9L12.898,4.9C14.216,4.095 15.757,3.63 17.403,3.593C18.461,3.57 19.408,3.553 20.015,3.553C20.901,3.553 22.032,3.611 22.933,3.669C24.119,3.744 25.676,4.331 26.323,5.791C26.554,6.313 26.53,6.881 26.478,7.27C26.457,7.426 26.429,7.574 26.398,7.708C26.772,8.036 27.267,8.562 27.527,9.222C27.821,9.971 27.654,10.76 27.502,11.24C27.466,11.355 27.427,11.462 27.389,11.559C27.453,11.64 27.521,11.73 27.589,11.828C27.885,12.25 28.27,12.928 28.301,13.704C28.318,14.113 28.207,14.524 28.101,14.83C28.032,15.03 27.953,15.219 27.878,15.382C28.167,15.793 28.449,16.423 28.433,17.291C28.403,18.941 27.126,20.398 25.43,20.398L25.425,20.398L20.753,20.371L20.748,20.371C20.605,20.373 20.519,20.43 20.459,20.521C20.388,20.627 20.339,20.81 20.393,21.037C20.606,21.928 21.079,23.043 21.423,23.845C21.793,24.706 22.169,25.675 22.323,26.841C22.41,27.501 22.334,28.218 22.025,28.836C21.703,29.476 21.129,29.998 20.305,30.163C19.036,30.418 17.867,29.8 17.279,28.706C16.531,27.313 15.193,25.059 13.941,23.382C13.071,22.217 12.061,20.78 11.167,19.483L9.312,19.482L9.281,19.483L9.267,19.483C8.53,19.483 7.083,19.326 5.81,18.253C4.507,17.156 3.553,15.243 3.553,12.074ZM17.443,5.366C13.935,5.444 11.032,7.923 10.48,11.55C10.425,11.914 10.39,12.256 10.39,12.589C10.39,14.278 10.885,15.925 11.828,17.31C12.872,18.844 14.242,20.821 15.362,22.322C16.685,24.093 18.069,26.429 18.841,27.867C19.086,28.322 19.505,28.515 19.956,28.425C20.18,28.38 20.332,28.255 20.44,28.04C20.559,27.803 20.616,27.457 20.565,27.074C20.443,26.154 20.146,25.366 19.793,24.544C19.464,23.776 18.923,22.515 18.668,21.448C18.509,20.782 18.617,20.086 18.984,19.536C19.36,18.972 19.991,18.598 20.753,18.598L20.758,18.598L25.43,18.624L25.435,18.624C26.039,18.621 26.645,18.069 26.66,17.259C26.669,16.735 26.473,16.447 26.366,16.324C26.064,15.977 25.891,15.394 26.165,14.853C26.248,14.689 26.349,14.471 26.425,14.251C26.507,14.013 26.533,13.852 26.529,13.775C26.519,13.509 26.367,13.174 26.136,12.844C26.03,12.692 25.923,12.565 25.844,12.476C25.804,12.432 25.773,12.399 25.752,12.378C25.742,12.368 25.734,12.359 25.729,12.355C25.434,12.073 25.369,11.626 25.573,11.273C25.575,11.268 25.581,11.258 25.587,11.245C25.601,11.22 25.621,11.179 25.646,11.127C25.696,11.021 25.758,10.873 25.811,10.706C25.929,10.332 25.942,10.037 25.877,9.871C25.795,9.664 25.635,9.444 25.435,9.238C25.241,9.037 25.047,8.888 24.949,8.818C24.585,8.555 24.429,8.083 24.574,7.651C24.615,7.53 24.686,7.292 24.721,7.035C24.758,6.755 24.733,6.581 24.701,6.51C24.429,5.896 23.661,5.492 22.821,5.438C21.927,5.382 20.842,5.327 20.015,5.327C19.43,5.327 18.5,5.342 17.443,5.366ZM9.199,6.673C9.199,6.673 9.186,6.672 9.18,6.672C9.167,6.672 9.149,6.673 9.127,6.675C9.082,6.678 9.024,6.685 8.953,6.697C8.811,6.723 8.631,6.768 8.428,6.84C8.022,6.986 7.543,7.233 7.086,7.619C6.2,8.369 5.327,9.706 5.327,12.074C5.327,14.879 6.157,16.227 6.952,16.897C7.77,17.586 8.726,17.708 9.253,17.71L9.294,17.709L9.985,17.709C9.083,16.157 8.617,14.388 8.617,12.589C8.617,12.134 8.664,11.697 8.727,11.283C8.999,9.493 9.742,7.922 10.814,6.673L9.329,6.673L9.304,6.674C9.269,6.676 9.234,6.675 9.199,6.673Z"/></svg>