<svg width="24" height="24" viewBox="0 0 24 24" fill="none" xmlns="http://www.w3.org/2000/svg">
<g id="msg_emoji_sad">
<path id="Union" fill-rule="evenodd" clip-rule="evenodd" d="M4.00002 12C4.00002 7.58168 7.58174 3.99996 12 3.99996C16.4183 3.99996 20 7.58168 20 12C20 16.4182 16.4183 20 12 20C7.58174 20 4.00002 16.4182 4.00002 12ZM12 2.66663C6.84536 2.66663 2.66669 6.8453 2.66669 12C2.66669 17.1546 6.84536 21.3333 12 21.3333C17.1547 21.3333 21.3334 17.1546 21.3334 12C21.3334 6.8453 17.1547 2.66663 12 2.66663ZM14.7166 11.3333C15.2965 11.3333 15.7666 10.811 15.7666 10.1666C15.7666 9.52231 15.2965 8.99998 14.7166 8.99998C14.1367 8.99998 13.6666 9.52231 13.6666 10.1666C13.6666 10.811 14.1367 11.3333 14.7166 11.3333ZM10.3667 10.1666C10.3667 10.811 9.8966 11.3333 9.3167 11.3333C8.7368 11.3333 8.2667 10.811 8.2667 10.1666C8.2667 9.52231 8.7368 8.99998 9.3167 8.99998C9.8966 8.99998 10.3667 9.52231 10.3667 10.1666ZM9.3147 15.8234L9.31379 15.8266L9.31379 15.8266C9.22621 16.1812 8.86907 16.3997 8.5129 16.3154C8.15463 16.2305 7.93301 15.8712 8.0179 15.5129L8.66661 15.6666C8.0179 15.5129 8.018 15.5125 8.0181 15.5121L8.0183 15.5112L8.01876 15.5093L8.01984 15.5049L8.02268 15.4937C8.02487 15.4853 8.02769 15.4747 8.0312 15.4622C8.03821 15.4373 8.048 15.4046 8.06107 15.3653C8.08716 15.2867 8.1266 15.1808 8.18357 15.0567C8.29712 14.8094 8.48318 14.4835 8.77724 14.158C9.3816 13.489 10.3939 12.8765 11.9999 12.8765C13.606 12.8765 14.6183 13.489 15.2226 14.158C15.5167 14.4835 15.7028 14.8094 15.8163 15.0567C15.8733 15.1808 15.9127 15.2867 15.9388 15.3653C15.9519 15.4046 15.9617 15.4373 15.9687 15.4622C15.9722 15.4747 15.975 15.4853 15.9772 15.4937L15.98 15.5049L15.9811 15.5093L15.9816 15.5112L15.9818 15.5121C15.9819 15.5125 15.982 15.5129 15.3459 15.6636L15.982 15.5129C16.0669 15.8712 15.8452 16.2305 15.487 16.3154C15.131 16.3997 14.7742 16.1815 14.6863 15.8274H14.6863L14.6863 15.8274M9.31533 15.8211L14.6863 15.8274C14.6862 15.8271 14.6861 15.8269 14.6861 15.8266C14.6862 15.827 14.6863 15.8272 14.6863 15.8274M14.686 15.8264C14.686 15.8265 14.6861 15.8266 14.6861 15.8266C14.686 15.8263 14.6859 15.826 14.6858 15.8257C14.6856 15.8245 14.6853 15.8233 14.685 15.8221M14.686 15.8264L9.31533 15.8211C9.31728 15.8143 9.32089 15.8022 9.32643 15.7855C9.33891 15.748 9.36089 15.688 9.39531 15.613C9.46454 15.4622 9.58115 15.2572 9.76665 15.0518C10.1214 14.6591 10.7758 14.2099 11.9999 14.2099C13.2241 14.2099 13.8785 14.6591 14.2332 15.0518C14.4187 15.2572 14.5353 15.4622 14.6046 15.613C14.639 15.688 14.661 15.748 14.6734 15.7855C14.6797 15.8043 14.6834 15.8172 14.6852 15.8234L14.686 15.8264ZM14.686 15.8264L14.6858 15.8257L14.6858 15.8253L14.6852 15.8232L14.685 15.8221L14.6849 15.8219L14.6849 15.8216L14.6848 15.8211C14.6848 15.8211 14.6847 15.8211 14.6847 15.8211C14.6848 15.8213 14.6848 15.8214 14.6849 15.8216M14.6847 15.8211C14.6847 15.8209 14.6846 15.8206 14.6846 15.8203L15.3331 15.6667C14.6896 15.8191 14.6847 15.8207 14.6847 15.8211ZM9.3147 15.8234C9.31488 15.8227 9.3151 15.8219 9.31533 15.8211L9.3147 15.8234Z" fill="black"/>
</g>
</svg>
