<svg width="24" height="24" viewBox="0 0 24 24" fill="none" xmlns="http://www.w3.org/2000/svg">
<g id="msg_emoji_happy">
<circle id="Oval" cx="12" cy="12" r="8.66667" stroke="black" stroke-width="1.33333"/>
<path id="Combined Shape" fill-rule="evenodd" clip-rule="evenodd" d="M12 17.5C14.7614 17.5 17 16.3061 17 14.8334C17 13.3606 14.7614 12.1667 12 12.1667C9.23858 12.1667 7 13.3606 7 14.8334C7 16.3061 9.23858 17.5 12 17.5ZM12 15.2334C14.2091 15.2334 16 14.7707 16 14.2C16 13.6293 14.2091 13.1667 12 13.1667C9.79086 13.1667 8 13.6293 8 14.2C8 14.7707 9.79086 15.2334 12 15.2334Z" fill="black"/>
<path id="Rectangle" d="M13.6667 10C13.6667 9.44772 14.1144 9 14.6667 9C15.219 9 15.6667 9.44772 15.6667 10V10.6667C15.6667 10.8508 15.5174 11 15.3334 11H14C13.8159 11 13.6667 10.8508 13.6667 10.6667V10Z" fill="black"/>
<path id="Rectangle Copy" d="M8.33331 10C8.33331 9.44772 8.78103 9 9.33331 9C9.8856 9 10.3333 9.44772 10.3333 10V10.6667C10.3333 10.8508 10.1841 11 9.99998 11H8.66665C8.48255 11 8.33331 10.8508 8.33331 10.6667V10Z" fill="black"/>
</g>
</svg>
