<svg xmlns="http://www.w3.org/2000/svg" width="32" height="32"><path d="M13.096,27.1C13.586,27.1 13.983,26.703 13.983,26.213C13.983,25.723 13.586,25.326 13.096,25.326L13.096,27.1ZM9.315,26.213L9.307,27.1L9.315,27.1L9.315,26.213ZM11.489,14.291C11.978,14.291 12.375,13.894 12.375,13.404C12.375,12.914 11.978,12.518 11.489,12.518L11.489,14.291ZM9.266,26.212L9.318,25.326C9.279,25.324 9.239,25.324 9.199,25.327L9.266,26.212ZM9.267,13.404L9.281,12.517L9.267,12.517L9.267,13.404ZM9.305,13.404L9.298,14.291L9.305,14.291L9.305,13.404ZM9.301,13.404L9.287,14.291L9.294,14.291L9.301,13.404ZM9.296,26.213L9.262,27.099C9.271,27.099 9.279,27.099 9.288,27.1L9.296,26.213ZM9.276,26.212L9.223,27.097L9.242,27.098L9.276,26.212ZM9.604,20.583L8.727,20.717L9.604,20.583ZM25.43,12.489L25.43,11.602L25.425,11.602L25.43,12.489ZM20.753,12.515L20.753,13.402L20.758,13.402L20.753,12.515ZM18.06,3.714L17.279,3.294L18.06,3.714ZM14.652,9.148L15.362,9.678L14.652,9.148ZM11.095,14.191L11.828,14.69L11.095,14.191ZM19.531,10.757L18.668,10.552L19.531,10.757ZM20.608,7.806L21.423,8.155L20.608,7.806ZM26.342,20.286L25.73,19.644C25.434,19.926 25.369,20.374 25.573,20.728L26.342,20.286ZM26.702,22.453L25.877,22.129L26.702,22.453ZM17.423,27.52L17.443,26.634L17.423,27.52ZM22.877,27.447L22.821,26.562L22.877,27.447ZM25.512,25.849L24.701,25.49L25.512,25.849ZM20.13,2.706L19.956,3.575L20.13,2.706ZM27.546,14.725L28.433,14.709L27.546,14.725ZM27.415,18.261L26.529,18.225L27.415,18.261ZM27.035,16.258L27.704,16.84L27.035,16.258ZM26.956,16.747L26.165,17.147L26.956,16.747ZM25.467,23.902L25.985,24.622L25.467,23.902ZM25.414,24.066L24.574,24.349L25.414,24.066ZM13.096,25.326L9.315,25.326L9.315,27.1L13.096,27.1L13.096,25.326ZM9.199,25.327C9.2,25.327 9.198,25.327 9.194,25.328C9.191,25.328 9.186,25.328 9.18,25.328C9.167,25.328 9.149,25.327 9.127,25.325C9.082,25.322 9.024,25.315 8.953,25.303C8.811,25.277 8.631,25.232 8.428,25.16C8.022,25.014 7.543,24.767 7.086,24.381C6.2,23.631 5.327,22.294 5.327,19.926L3.553,19.926C3.553,22.795 4.641,24.635 5.941,25.735C6.578,26.274 7.248,26.621 7.831,26.829C8.392,27.03 8.938,27.125 9.332,27.096L9.199,25.327ZM5.327,19.926C5.327,17.121 6.157,15.773 6.952,15.103C7.777,14.408 8.743,14.29 9.267,14.29L9.267,12.517C8.53,12.517 7.083,12.674 5.81,13.747C4.507,14.844 3.553,16.757 3.553,19.926L5.327,19.926ZM9.253,14.29L9.287,14.291L9.315,12.518L9.281,12.517L9.253,14.29ZM9.312,12.518L9.308,12.517L9.294,14.291L9.298,14.291L9.312,12.518ZM9.323,25.327L9.304,25.326L9.288,27.1L9.307,27.1L9.323,25.327ZM9.213,27.097L9.223,27.097L9.328,25.327L9.318,25.326L9.213,27.097ZM9.33,25.327L9.31,25.326L9.242,27.098L9.262,27.099L9.33,25.327ZM25.425,11.602L20.748,11.629L20.758,13.402L25.435,13.376L25.425,11.602ZM17.279,3.294C16.531,4.687 15.193,6.941 13.941,8.618L15.362,9.678C16.685,7.907 18.069,5.571 18.841,4.133L17.279,3.294ZM13.941,8.618C12.797,10.151 11.409,12.154 10.362,13.692L11.828,14.69C12.872,13.156 14.242,11.179 15.362,9.678L13.941,8.618ZM20.393,10.963C20.606,10.072 21.079,8.957 21.423,8.155L19.793,7.456C19.464,8.224 18.923,9.485 18.668,10.552L20.393,10.963ZM21.423,8.155C21.793,7.294 22.169,6.325 22.323,5.159L20.565,4.926C20.443,5.846 20.146,6.634 19.793,7.456L21.423,8.155ZM25.985,24.622C26.244,24.435 27.143,23.753 27.527,22.778L25.877,22.129C25.795,22.336 25.635,22.556 25.435,22.762C25.241,22.963 25.047,23.112 24.949,23.182L25.985,24.622ZM17.403,28.407C18.461,28.43 19.408,28.447 20.015,28.447L20.015,26.673C19.43,26.673 18.5,26.657 17.443,26.634L17.403,28.407ZM20.015,28.447C20.901,28.447 22.032,28.389 22.933,28.331L22.821,26.562C21.927,26.618 20.842,26.673 20.015,26.673L20.015,28.447ZM10.39,19.411C10.39,17.722 10.885,16.075 11.828,14.69L10.362,13.692C9.213,15.38 8.617,17.376 8.617,19.411L10.39,19.411ZM20.305,1.837C19.036,1.582 17.867,2.2 17.279,3.294L18.841,4.133C19.086,3.678 19.505,3.485 19.956,3.575L20.305,1.837ZM19.956,3.575C20.18,3.62 20.332,3.745 20.44,3.96C20.559,4.197 20.616,4.543 20.565,4.926L22.323,5.159C22.41,4.499 22.334,3.782 22.025,3.164C21.703,2.524 21.129,2.002 20.305,1.837L19.956,3.575ZM20.753,11.629C20.607,11.629 20.52,11.571 20.459,11.479C20.388,11.373 20.339,11.19 20.393,10.963L18.668,10.552C18.509,11.218 18.617,11.914 18.984,12.464C19.36,13.028 19.991,13.402 20.753,13.402L20.753,11.629ZM24.701,25.49C24.429,26.104 23.661,26.508 22.821,26.562L22.933,28.331C24.119,28.256 25.676,27.669 26.323,26.209L24.701,25.49ZM8.727,20.717C9.408,25.197 13.037,28.309 17.403,28.407L17.443,26.634C13.935,26.556 11.032,24.077 10.48,20.45L8.727,20.717ZM25.43,13.376C26.036,13.376 26.645,13.929 26.66,14.741L28.433,14.709C28.403,13.059 27.126,11.602 25.43,11.602L25.43,13.376ZM27.704,16.84C28.041,16.453 28.452,15.753 28.433,14.709L26.66,14.741C26.669,15.265 26.473,15.553 26.366,15.676L27.704,16.84ZM28.301,18.296C28.318,17.887 28.207,17.476 28.101,17.17C27.989,16.846 27.85,16.55 27.747,16.346L26.165,17.147C26.248,17.311 26.349,17.529 26.425,17.749C26.507,17.987 26.533,18.148 26.529,18.225L28.301,18.296ZM26.342,20.286C26.954,20.928 26.954,20.928 26.954,20.927C26.954,20.927 26.954,20.927 26.954,20.927C26.955,20.927 26.955,20.927 26.955,20.926C26.956,20.926 26.956,20.925 26.957,20.925C26.958,20.923 26.97,20.912 26.976,20.906C26.987,20.895 27.002,20.88 27.02,20.862C27.056,20.825 27.105,20.773 27.163,20.708C27.279,20.58 27.433,20.396 27.589,20.172C27.885,19.75 28.27,19.072 28.301,18.296L26.529,18.225C26.519,18.491 26.367,18.826 26.136,19.156C26.03,19.308 25.923,19.435 25.844,19.524C25.804,19.568 25.773,19.601 25.752,19.622C25.742,19.632 25.735,19.64 25.731,19.643C25.729,19.645 25.728,19.646 25.728,19.647C25.727,19.647 25.728,19.647 25.728,19.646C25.728,19.646 25.728,19.646 25.729,19.645C25.729,19.645 25.729,19.645 25.729,19.645C25.729,19.645 25.729,19.645 25.729,19.645C25.73,19.645 25.73,19.644 26.342,20.286ZM27.527,22.778C27.821,22.029 27.654,21.24 27.502,20.76C27.42,20.499 27.325,20.277 27.251,20.119C27.214,20.04 27.181,19.975 27.156,19.929C27.144,19.905 27.134,19.886 27.126,19.872C27.122,19.865 27.114,19.85 27.113,19.849C27.112,19.848 27.112,19.847 27.112,19.846C27.111,19.846 27.111,19.846 27.111,19.845C27.111,19.845 27.111,19.845 27.111,19.845C27.111,19.845 27.111,19.844 26.342,20.286C25.573,20.728 25.573,20.728 25.573,20.727C25.573,20.727 25.573,20.727 25.572,20.727C25.572,20.727 25.572,20.727 25.572,20.726C25.572,20.726 25.572,20.726 25.572,20.725C25.571,20.725 25.571,20.725 25.571,20.725C25.571,20.725 25.572,20.726 25.573,20.729C25.576,20.733 25.581,20.742 25.587,20.755C25.601,20.78 25.621,20.821 25.646,20.873C25.696,20.979 25.758,21.127 25.811,21.294C25.929,21.668 25.942,21.963 25.877,22.129L27.527,22.778ZM26.323,26.209C26.554,25.687 26.53,25.119 26.478,24.73C26.423,24.318 26.314,23.96 26.255,23.783L24.574,24.349C24.615,24.47 24.686,24.708 24.721,24.965C24.758,25.245 24.733,25.419 24.701,25.49L26.323,26.209ZM8.617,19.411C8.617,19.866 8.664,20.303 8.727,20.717L10.48,20.45C10.425,20.086 10.39,19.744 10.39,19.411L8.617,19.411ZM9.305,14.291L11.489,14.291L11.489,12.518L9.305,12.518L9.305,14.291ZM26.366,15.676C26.064,16.023 25.891,16.606 26.165,17.147L27.747,16.346C27.806,16.463 27.809,16.573 27.795,16.648C27.783,16.721 27.751,16.785 27.704,16.84L26.366,15.676ZM24.949,23.182C24.585,23.445 24.429,23.917 24.574,24.349L26.255,23.783C26.36,24.094 26.247,24.433 25.985,24.622L24.949,23.182Z"/></svg>
