<svg xmlns="http://www.w3.org/2000/svg" width="32" height="32"><path d="M16,3.556C22.868,3.556 28.444,9.132 28.444,16C28.444,22.868 22.868,28.444 16,28.444C9.132,28.444 3.556,22.868 3.556,16C3.556,9.132 9.132,3.556 16,3.556ZM16,5.333C10.113,5.333 5.333,10.113 5.333,16C5.333,21.887 10.113,26.667 16,26.667C21.887,26.667 26.667,21.887 26.667,16C26.667,10.113 21.887,5.333 16,5.333ZM18.222,13.333C18.222,12.597 18.819,12 19.556,12C20.292,12 20.889,12.597 20.889,13.333L20.889,14.222C20.889,14.468 20.69,14.667 20.445,14.667L18.667,14.667C18.421,14.667 18.222,14.468 18.222,14.222L18.222,13.333ZM16,23.333C12.318,23.333 9.333,21.741 9.333,19.778C9.333,17.814 12.318,16.222 16,16.222C19.682,16.222 22.667,17.814 22.667,19.778C22.667,21.741 19.682,23.333 16,23.333ZM16,20.311C18.945,20.311 21.333,19.694 21.333,18.933C21.333,18.172 18.945,17.556 16,17.556C13.054,17.556 10.667,18.172 10.667,18.933C10.667,19.694 13.054,20.311 16,20.311ZM11.111,13.333C11.111,12.597 11.708,12 12.444,12C13.181,12 13.778,12.597 13.778,13.333L13.778,14.222C13.778,14.468 13.579,14.667 13.333,14.667L11.556,14.667C11.31,14.667 11.111,14.468 11.111,14.222L11.111,13.333Z"/>
</svg>
