<svg width="24" height="24" viewBox="0 0 24 24" fill="none" xmlns="http://www.w3.org/2000/svg">
<g id="msg_emoji_tongue">
<path id="Subtract" fill-rule="evenodd" clip-rule="evenodd" d="M3.99996 12C3.99996 7.58168 7.58168 3.99996 12 3.99996C16.4182 3.99996 20 7.58168 20 12C20 15.207 18.1129 17.9732 15.3886 19.2489C15.4289 19.0415 15.45 18.8276 15.45 18.6092V17.2958C16.6001 16.8108 17.3333 16.0074 17.3333 14.87C17.3333 14.1322 16.575 14.3231 15.3911 14.621C14.5073 14.8435 13.3863 15.1256 12.1666 15.1256C10.947 15.1256 9.82598 14.8435 8.94218 14.621C7.7583 14.3231 6.99998 14.1322 6.99998 14.87C6.99998 16.0293 7.76163 16.8416 8.94997 17.3234V18.6092C8.94997 18.8954 8.98621 19.174 9.05445 19.4403C6.09379 18.2672 3.99996 15.3781 3.99996 12ZM21.3333 12C21.3333 16.316 18.4037 19.9478 14.4246 21.0153C13.8466 21.5677 13.0672 21.9092 12.2 21.9092C11.4019 21.9092 10.6783 21.62 10.1175 21.1434C5.86518 20.2725 2.66663 16.5098 2.66663 12C2.66663 6.8453 6.8453 2.66663 12 2.66663C17.1546 2.66663 21.3333 6.8453 21.3333 12ZM13.6042 11.2428C13.1828 10.9602 13.219 10.3292 13.6699 10.0966L16.6825 8.54267C16.8805 8.44052 17.072 8.6899 16.9222 8.85486L15.6654 10.2391C15.4641 10.4607 15.4353 10.7894 15.595 11.0427L16.7676 12.9034C16.8828 13.0862 16.6665 13.2964 16.487 13.1761L13.6042 11.2428ZM10.3301 10.0966C10.781 10.3292 10.8172 10.9602 10.3958 11.2428L7.51293 13.1761C7.33347 13.2964 7.11713 13.0862 7.23233 12.9034L8.40501 11.0427C8.56464 10.7894 8.53583 10.4607 8.33457 10.2391L7.07771 8.85486C6.92793 8.6899 7.11944 8.44052 7.31747 8.54267L10.3301 10.0966ZM10.4391 15.967C10.2295 15.9327 10.0333 16.0931 10.0333 16.3055V18.7259C10.0333 19.9225 11.0034 20.8926 12.2 20.8926C13.3966 20.8926 14.3667 19.9225 14.3667 18.7259V16.3004C14.3667 16.0896 14.1734 15.93 13.9653 15.9629C13.5437 16.0294 12.8486 16.1192 12.1667 16.1192C11.4987 16.1192 10.8434 16.0331 10.4391 15.967Z" fill="black"/>
</g>
</svg>
