<svg xmlns="http://www.w3.org/2000/svg" width="32" height="32"><path d="M16,3.556C22.873,3.556 28.445,9.127 28.445,16C28.445,22.873 22.873,28.444 16,28.444C9.127,28.444 3.556,22.873 3.556,16C3.556,9.127 9.127,3.556 16,3.556ZM5.333,16C5.333,21.891 10.109,26.667 16,26.667C21.891,26.667 26.667,21.891 26.667,16C26.667,10.109 21.891,5.333 16,5.333C10.109,5.333 5.333,10.109 5.333,16ZM16,19.333C18.209,19.333 20.667,21.177 20.667,22.305C20.667,23.009 19.706,22.833 18.447,22.602C17.691,22.463 16.828,22.305 16,22.305C15.172,22.305 14.309,22.463 13.553,22.602C12.294,22.833 11.333,23.009 11.333,22.305C11.333,21.177 13.791,19.333 16,19.333ZM11.555,17.333C10.819,17.333 10.222,16.537 10.222,15.555C10.222,14.574 10.819,13.778 11.555,13.778C12.292,13.778 12.889,14.574 12.889,15.555C12.889,16.537 12.292,17.333 11.555,17.333ZM21.778,15.555C21.778,16.537 21.181,17.333 20.445,17.333C19.708,17.333 19.111,16.537 19.111,15.555C19.111,14.574 19.708,13.778 20.445,13.778C21.181,13.778 21.778,14.574 21.778,15.555ZM18.513,9.939C18.513,9.607 18.769,9.288 19.298,9.183C19.819,9.08 20.628,9.172 21.825,9.641C22.439,9.882 22.972,10.321 23.369,10.776C23.763,11.227 24.039,11.711 24.12,12.054C24.14,12.142 24.115,12.223 24.079,12.283C24.042,12.344 23.988,12.395 23.928,12.431C23.81,12.501 23.629,12.533 23.476,12.411C23.411,12.359 23.339,12.297 23.259,12.228C22.853,11.881 22.248,11.363 21.297,11.037C20.615,10.803 20.056,10.691 19.622,10.604C19.518,10.583 19.421,10.563 19.332,10.544C19.106,10.495 18.909,10.443 18.768,10.362C18.694,10.319 18.628,10.264 18.581,10.19C18.534,10.114 18.513,10.03 18.513,9.939ZM13.478,9.939C13.478,10.03 13.457,10.114 13.409,10.19C13.362,10.264 13.296,10.319 13.223,10.362C13.082,10.443 12.884,10.495 12.659,10.544C12.569,10.563 12.472,10.583 12.368,10.604C11.934,10.691 11.376,10.803 10.693,11.037C9.741,11.363 9.132,11.885 8.728,12.232C8.682,12.271 8.639,12.308 8.598,12.342C8.532,12.398 8.455,12.387 8.422,12.378C8.384,12.369 8.349,12.351 8.321,12.334C8.265,12.3 8.205,12.251 8.153,12.2C8.101,12.149 8.049,12.09 8.012,12.034C7.993,12.007 7.975,11.974 7.962,11.939C7.952,11.911 7.934,11.849 7.963,11.782C8.11,11.435 8.394,11.005 8.771,10.612C9.147,10.219 9.625,9.853 10.165,9.641C11.363,9.172 12.171,9.08 12.692,9.183C13.222,9.288 13.478,9.607 13.478,9.939Z"/></svg>