<svg xmlns="http://www.w3.org/2000/svg" width="32" height="32"><path d="M16,3.556C22.868,3.556 28.444,9.132 28.444,16C28.444,22.868 22.868,28.444 16,28.444C9.132,28.444 3.556,22.868 3.556,16C3.556,9.132 9.132,3.556 16,3.556ZM6.936,21.623C7.888,23.153 9.216,24.425 10.79,25.308L11.3,23.786L8.985,21.497C8.67,21.527 8.148,21.577 7.587,21.636C7.363,21.659 7.143,21.651 6.936,21.623ZM5.65,13.412C5.443,14.241 5.333,15.108 5.333,16C5.333,17.5 5.644,18.929 6.204,20.225C6.395,20.334 6.909,20.59 7.472,20.531C7.981,20.477 8.46,20.431 8.783,20.4L9.193,19.852L9.348,14.337L8.207,12.83L5.65,13.412ZM22.504,24.452C24.823,22.665 26.387,19.945 26.633,16.856L24.486,17.126L22.352,20.343L22.504,24.452ZM13.802,9.287L13.802,12.191L18.389,14.817L21.08,13.413L21.363,8.495L18.628,6.887L13.802,9.287ZM13.378,13.229C13.366,13.236 13.354,13.243 13.342,13.25L10.615,14.751C10.56,14.781 10.503,14.805 10.446,14.823L10.335,18.74C10.386,18.75 10.436,18.768 10.482,18.796L13.769,20.785L18.11,19.103L17.856,15.792L13.378,13.229ZM17.953,5.512C17.32,5.395 16.667,5.333 16,5.333C13.945,5.333 12.025,5.916 10.396,6.924L10.637,8.362L12.913,8.362C12.985,8.362 13.054,8.37 13.12,8.386L17.809,6.054C17.806,6.024 17.804,5.995 17.804,5.965C17.804,5.794 17.86,5.638 17.953,5.512ZM9.388,7.632C7.898,8.812 6.729,10.38 6.037,12.184L7.802,11.782C7.822,11.686 7.86,11.591 7.913,11.504L9.582,8.787L9.388,7.632ZM26.663,15.733C26.591,12.809 25.34,10.175 23.368,8.29C23.234,8.46 23.034,8.585 22.782,8.616L22.466,8.656L22.194,13.39C22.203,13.4 22.212,13.411 22.22,13.421L24.325,16.026L26.663,15.733ZM18.248,26.429C19.382,26.185 20.45,25.761 21.42,25.187L21.255,20.738L18.644,20.09L18.641,20.089L14.749,21.597C14.749,21.608 14.75,21.619 14.75,21.629L14.75,23.648C15.085,23.978 15.548,24.413 16.06,24.831C16.833,25.463 17.808,26.133 18.248,26.429ZM11.796,25.805C13.086,26.359 14.508,26.667 16,26.667C16.207,26.667 16.413,26.661 16.618,26.649C16.208,26.355 15.756,26.018 15.356,25.691C14.867,25.291 14.42,24.877 14.076,24.543L12.309,24.271L11.796,25.805Z"/>
</svg>
