<svg xmlns="http://www.w3.org/2000/svg" width="32" height="32"><path d="M24.515,17.231L17.897,20.798C16.502,21.549 14.823,21.549 13.428,20.798L2.883,15.114C1.12,14.164 1.105,11.641 2.856,10.669L13.585,4.713C15.027,3.913 16.782,3.925 18.212,4.745L28.542,10.663C29.785,11.376 30.115,12.874 29.546,14.008L29.684,20.224C29.695,20.715 29.305,21.122 28.815,21.133C28.325,21.144 27.917,20.754 27.907,20.264L27.8,15.46L24.998,16.97C25.05,16.961 25.103,16.956 25.157,16.956C25.648,16.956 26.046,17.354 26.046,17.845L26.046,21.097C26.046,22.08 25.52,22.988 24.667,23.478L17.613,27.529C16.641,28.088 15.451,28.11 14.458,27.589L6.634,23.481C5.731,23.006 5.165,22.07 5.165,21.049L5.165,17.845C5.165,17.354 5.563,16.956 6.054,16.956C6.544,16.956 6.943,17.354 6.943,17.845L6.943,21.049C6.943,21.409 7.142,21.74 7.461,21.907L15.284,26.015C15.739,26.253 16.283,26.243 16.728,25.988L23.782,21.936C24.083,21.764 24.268,21.444 24.268,21.097L24.268,17.845C24.268,17.607 24.362,17.39 24.515,17.231ZM28.032,12.959C28.068,12.673 27.944,12.37 27.658,12.206L17.328,6.287C16.438,5.777 15.345,5.769 14.448,6.267L3.718,12.223C3.196,12.513 3.201,13.266 3.727,13.549L14.272,19.233C15.14,19.701 16.185,19.701 17.054,19.233L27.641,13.526C27.689,13.5 27.734,13.47 27.773,13.436C27.808,13.251 27.9,13.085 28.032,12.959Z"/>
</svg>
