<svg xmlns="http://www.w3.org/2000/svg" width="32" height="32"><path d="M25.728,10.992L29.92,14.671C30.288,14.995 30.325,15.557 30.001,15.925C29.678,16.294 29.116,16.331 28.747,16.007L16.261,5.047C16.06,4.87 15.759,4.87 15.557,5.046L3.253,15.83C2.884,16.154 2.322,16.117 1.998,15.748C1.675,15.379 1.712,14.817 2.081,14.493L14.386,3.709C15.258,2.945 16.562,2.945 17.434,3.71L23.783,9.284L23.784,7.127C23.784,6.588 24.222,6.15 24.762,6.15C25.302,6.15 25.74,6.589 25.74,7.128L25.738,10.853C25.738,10.9 25.735,10.946 25.728,10.992ZM6.063,14.015C6.064,13.524 6.462,13.126 6.952,13.126C7.443,13.126 7.841,13.524 7.841,14.015L7.841,24.622C7.841,25.604 8.637,26.4 9.619,26.4L22.381,26.4C23.363,26.4 24.159,25.604 24.159,24.622L24.159,14.507C24.159,14.016 24.557,13.618 25.048,13.618C25.538,13.618 25.936,14.016 25.936,14.507L25.936,24.622C25.936,26.586 24.345,28.178 22.381,28.178L9.619,28.178C7.655,28.178 6.063,26.586 6.063,24.622L6.063,14.015ZM19.657,17.096L19.657,20.415C19.657,21.51 18.768,22.4 17.672,22.4L14.328,22.4C13.232,22.4 12.343,21.51 12.343,20.415L12.343,17.096C12.343,16.001 13.232,15.111 14.328,15.111L17.672,15.111C18.768,15.111 19.657,16.001 19.657,17.096ZM18.057,17.096C18.057,16.884 17.885,16.711 17.672,16.711L14.328,16.711C14.115,16.711 13.943,16.884 13.943,17.096L13.943,20.415C13.943,20.627 14.115,20.8 14.328,20.8L17.672,20.8C17.885,20.8 18.057,20.627 18.057,20.415L18.057,17.096Z"/>
</svg>
