<svg xmlns="http://www.w3.org/2000/svg" width="32" height="32"><path d="M16,3.556C22.873,3.556 28.444,9.127 28.444,16C28.444,22.873 22.873,28.444 16,28.444C9.127,28.444 3.556,22.873 3.556,16C3.556,9.127 9.127,3.556 16,3.556ZM5.333,16C5.333,21.891 10.109,26.667 16,26.667C21.891,26.667 26.667,21.891 26.667,16C26.667,10.109 21.891,5.333 16,5.333C10.109,5.333 5.333,10.109 5.333,16ZM13.822,13.555C13.822,14.415 13.195,15.111 12.422,15.111C11.649,15.111 11.022,14.415 11.022,13.555C11.022,12.696 11.649,12 12.422,12C13.195,12 13.822,12.696 13.822,13.555ZM19.622,15.111C18.849,15.111 18.222,14.415 18.222,13.555C18.222,12.696 18.849,12 19.622,12C20.395,12 21.022,12.696 21.022,13.555C21.022,14.415 20.395,15.111 19.622,15.111ZM21.863,17.5C23.32,17.152 24.219,16.937 24.219,17.449C24.219,21.989 20.538,25.669 15.999,25.669C11.459,25.669 7.779,21.989 7.779,17.449C7.779,16.937 8.677,17.152 10.134,17.5C11.626,17.857 13.702,18.354 15.999,18.354C18.295,18.354 20.372,17.857 21.863,17.5ZM21.079,19.105C19.93,19.405 18.17,19.865 15.989,19.865C13.807,19.865 12.047,19.405 10.899,19.105C9.945,18.855 9.413,18.716 9.413,19.043C9.413,22.19 14.194,22.331 15.989,22.331C18.004,22.331 22.565,22.19 22.565,19.043C22.565,18.716 22.033,18.855 21.079,19.105Z"/></svg>