<svg width="24" height="24" viewBox="0 0 24 24" fill="none" xmlns="http://www.w3.org/2000/svg">
<g id="msg_emoji_like">
<path id="Vector" d="M9.82233 20.3248C10.1896 20.3248 10.4873 20.0271 10.4873 19.6598C10.4873 19.2926 10.1896 18.9948 9.82233 18.9948V20.3248ZM6.98616 19.6598L6.97996 20.3248H6.98616V19.6598ZM8.61641 10.7181C8.98368 10.7181 9.28141 10.4204 9.28142 10.0531C9.28142 9.68587 8.98369 9.38814 8.61642 9.38813L8.61641 10.7181ZM6.9492 19.6587L6.98852 18.9948C6.9589 18.9931 6.92919 18.9933 6.8996 18.9955L6.9492 19.6587ZM6.95016 10.0527L6.96064 9.3877H6.95016V10.0527ZM6.9788 10.0531L6.97339 10.7181H6.97879L6.9788 10.0531ZM6.97559 10.0531L6.96512 10.718L6.97019 10.7181L6.97559 10.0531ZM6.97213 19.6597L6.94666 20.3242C6.95308 20.3245 6.9595 20.3246 6.96592 20.3247L6.97213 19.6597ZM6.95685 19.6591L6.91752 20.3231L6.93138 20.3236L6.95685 19.6591ZM7.2028 15.4375L6.54536 15.5374L7.2028 15.4375ZM19.0728 9.36666V8.70165L19.069 8.70167L19.0728 9.36666ZM15.5647 9.38642V10.0514L15.5684 10.0514L15.5647 9.38642ZM13.5452 2.78547L12.9593 2.47085V2.47085L13.5452 2.78547ZM10.989 6.861L11.5218 7.25884V7.25884L10.989 6.861ZM8.32144 10.6432L8.87112 11.0174L8.32144 10.6432ZM14.6481 8.06801L14.0012 7.91374L14.6481 8.06801ZM15.4561 5.85437L16.0672 6.11659L16.0672 6.11659L15.4561 5.85437ZM19.7563 15.2146L19.2973 14.7333C19.0756 14.9447 19.027 15.2802 19.1797 15.5459L19.7563 15.2146ZM20.0263 16.84L19.4075 16.5966L20.0263 16.84ZM13.0674 20.6403L13.0822 19.9754L13.0674 20.6403ZM17.1579 20.5849L17.1158 19.9213H17.1158L17.1579 20.5849ZM19.134 19.3871L18.526 19.1177L19.134 19.3871ZM15.0977 2.02956L14.9667 2.68153L15.0977 2.02956ZM20.6597 11.0437L21.3246 11.0316L20.6597 11.0437ZM20.5615 13.6954L19.8971 13.6687L20.5615 13.6954ZM20.2761 12.1936L20.7777 12.6303L20.2761 12.1936ZM20.2169 12.5602L19.6236 12.8606L20.2169 12.5602ZM19.1004 17.9266L19.4888 18.4664L19.1004 17.9266ZM19.0608 18.0492L18.4305 18.2615L19.0608 18.0492ZM9.82233 18.9948H6.98616V20.3248H9.82233V18.9948ZM6.8996 18.9955C6.89964 18.9955 6.89839 18.9956 6.89578 18.9957C6.89318 18.9958 6.88951 18.9958 6.88471 18.9958C6.87501 18.9957 6.86187 18.9952 6.8452 18.994C6.81159 18.9916 6.76779 18.9863 6.71461 18.9769C6.60797 18.9581 6.47357 18.9241 6.32129 18.8697C6.01633 18.7606 5.65691 18.5755 5.31471 18.2859C4.64981 17.7232 3.99508 16.7204 3.99508 14.9443H2.66508C2.66508 17.0963 3.48053 18.476 4.45551 19.3011C4.93323 19.7055 5.43618 19.9656 5.87344 20.122C6.29415 20.2725 6.70316 20.3439 6.9988 20.3218L6.8996 18.9955ZM3.99508 14.9443C3.99508 12.841 4.6174 11.8298 5.21411 11.3271C5.83296 10.8057 6.55719 10.7177 6.95016 10.7177V9.3877C6.39786 9.3877 5.31205 9.50551 4.35718 10.31C3.38016 11.1331 2.66508 12.5677 2.66508 14.9443H3.99508ZM6.93969 10.7176L6.96512 10.718L6.98607 9.38819L6.96064 9.38778L6.93969 10.7176ZM6.9842 9.38815L6.981 9.38812L6.97019 10.7181L6.97339 10.7181L6.9842 9.38815ZM6.99237 18.9949L6.97834 18.9947L6.96592 20.3247L6.97996 20.3248L6.99237 18.9949ZM6.90988 20.3225L6.91753 20.323L6.99616 18.9953L6.98852 18.9948L6.90988 20.3225ZM6.9976 18.9952L6.98231 18.9946L6.93138 20.3236L6.94666 20.3242L6.9976 18.9952ZM19.069 8.70167L15.5609 8.72143L15.5684 10.0514L19.0765 10.0317L19.069 8.70167ZM12.9593 2.47085C12.3984 3.5153 11.3949 5.20569 10.4561 6.46317L11.5218 7.25884C12.5137 5.93032 13.5521 4.17826 14.1311 3.1001L12.9593 2.47085ZM10.4561 6.46317C9.59752 7.61314 8.55682 9.11587 7.77175 10.2689L8.87112 11.0174C9.65433 9.86712 10.6815 8.38436 11.5218 7.25884L10.4561 6.46317ZM15.2949 8.22228C15.4543 7.55408 15.8093 6.71774 16.0672 6.11659L14.845 5.59215C14.5978 6.16807 14.1921 7.11351 14.0012 7.91374L15.2949 8.22228ZM16.0672 6.11659C16.3445 5.47039 16.6265 4.74411 16.7422 3.86908L15.4236 3.69476C15.3324 4.38474 15.1094 4.97575 14.845 5.59215L16.0672 6.11659ZM19.4888 18.4664C19.6833 18.3264 20.3575 17.8149 20.6452 17.0834L19.4075 16.5966C19.3464 16.7519 19.2263 16.9169 19.0765 17.0716C18.9309 17.222 18.7855 17.3339 18.712 17.3868L19.4888 18.4664ZM13.0526 21.3051C13.8457 21.3228 14.5559 21.335 15.0111 21.335V20.005C14.5723 20.005 13.8753 19.9931 13.0822 19.9754L13.0526 21.3051ZM15.0111 21.335C15.6761 21.335 16.5243 21.2914 17.2 21.2486L17.1158 19.9213C16.445 19.9638 15.6318 20.005 15.0111 20.005V21.335ZM7.79253 14.5583C7.79253 13.2915 8.16369 12.0564 8.87112 11.0174L7.77175 10.2689C6.90971 11.535 6.46253 13.0323 6.46253 14.5583H7.79253ZM15.2287 1.37759C14.2769 1.18637 13.4003 1.64977 12.9593 2.47085L14.1311 3.1001C14.3145 2.75855 14.629 2.61368 14.9667 2.68153L15.2287 1.37759ZM14.9667 2.68153C15.1349 2.71533 15.2488 2.80878 15.3297 2.96992C15.4191 3.14798 15.4617 3.40708 15.4236 3.69476L16.7422 3.86908C16.8076 3.37425 16.7508 2.83619 16.5184 2.37321C16.2775 1.89331 15.847 1.50182 15.2287 1.37759L14.9667 2.68153ZM15.5647 8.72142C15.4555 8.72142 15.39 8.67801 15.3443 8.60947C15.2912 8.52992 15.2543 8.3926 15.2949 8.22228L14.0012 7.91374C13.882 8.41375 13.963 8.93563 14.238 9.34771C14.5203 9.7708 14.993 10.0514 15.5647 10.0514V8.72142ZM18.526 19.1177C18.3219 19.5783 17.7458 19.8813 17.1158 19.9213L17.2 21.2486C18.0896 21.1922 19.2568 20.7514 19.742 19.6564L18.526 19.1177ZM6.54536 15.5374C7.05627 18.898 9.77738 21.232 13.0526 21.3051L13.0822 19.9754C10.4516 19.9167 8.27383 18.0579 7.86025 15.3375L6.54536 15.5374ZM19.0728 10.0317C19.5268 10.0317 19.9837 10.4469 19.9948 11.0558L21.3246 11.0316C21.3021 9.79394 20.3444 8.70166 19.0728 8.70166V10.0317ZM20.7777 12.6303C21.0309 12.3394 21.3388 11.8144 21.3246 11.0316L19.9948 11.0558C20.002 11.449 19.8547 11.6649 19.7746 11.757L20.7777 12.6303ZM21.226 13.7221C21.2383 13.4155 21.1549 13.1069 21.0755 12.8772C20.9916 12.6347 20.8876 12.4126 20.8102 12.2598L19.6236 12.8606C19.6858 12.9833 19.7614 13.1469 19.8186 13.3121C19.8802 13.4901 19.8994 13.6113 19.8971 13.6687L21.226 13.7221ZM19.7563 15.2146C20.2152 15.6959 20.2153 15.6957 20.2154 15.6956C20.2155 15.6956 20.2156 15.6955 20.2157 15.6954C20.2159 15.6952 20.2161 15.695 20.2163 15.6948C20.2167 15.6944 20.2172 15.694 20.2177 15.6935C20.2187 15.6925 20.2199 15.6913 20.2213 15.69C20.2241 15.6873 20.2276 15.6838 20.2318 15.6797C20.2403 15.6714 20.2515 15.6602 20.2651 15.6463C20.2922 15.6185 20.3291 15.5797 20.3726 15.5312C20.459 15.4349 20.5745 15.2972 20.692 15.1292C20.9138 14.8122 21.2026 14.3041 21.226 13.7221L19.8971 13.6687C19.889 13.868 19.7752 14.1195 19.6022 14.3668C19.5223 14.4809 19.4424 14.5765 19.3827 14.6429C19.3532 14.6758 19.3294 14.7008 19.3141 14.7164C19.3065 14.7242 19.301 14.7297 19.2981 14.7326C19.2966 14.734 19.2958 14.7348 19.2957 14.7349C19.2956 14.735 19.2957 14.7349 19.296 14.7346C19.2961 14.7345 19.2963 14.7343 19.2965 14.7341C19.2966 14.734 19.2968 14.7339 19.2969 14.7337C19.297 14.7337 19.2971 14.7336 19.2971 14.7335C19.2972 14.7334 19.2973 14.7333 19.7563 15.2146ZM20.6452 17.0834C20.866 16.5218 20.7403 15.9301 20.6266 15.5699C20.5649 15.3745 20.4938 15.2076 20.4383 15.0895C20.4104 15.0299 20.3857 14.9814 20.3673 14.9465C20.3581 14.929 20.3504 14.9148 20.3446 14.9042C20.3416 14.8988 20.3392 14.8944 20.3372 14.891C20.3362 14.8892 20.3354 14.8877 20.3347 14.8864C20.3343 14.8858 20.334 14.8852 20.3337 14.8847C20.3335 14.8844 20.3334 14.8842 20.3332 14.884C20.3332 14.8838 20.3331 14.8837 20.3331 14.8836C20.333 14.8835 20.3329 14.8833 19.7563 15.2146C19.1797 15.5459 19.1796 15.5457 19.1795 15.5456C19.1795 15.5455 19.1794 15.5454 19.1793 15.5453C19.1792 15.5451 19.1791 15.545 19.1791 15.5448C19.1789 15.5445 19.1788 15.5443 19.1787 15.5441C19.1784 15.5438 19.1784 15.5436 19.1784 15.5437C19.1785 15.5438 19.179 15.5447 19.18 15.5465C19.1819 15.55 19.1855 15.5566 19.1905 15.5661C19.2006 15.5852 19.216 15.6155 19.2344 15.6547C19.2718 15.7342 19.3187 15.845 19.3583 15.9703C19.447 16.2513 19.4563 16.4724 19.4075 16.5966L20.6452 17.0834ZM19.742 19.6564C19.9152 19.2656 19.8975 18.839 19.8587 18.5477C19.8174 18.2383 19.7358 17.9702 19.691 17.837L18.4305 18.2615C18.4612 18.3526 18.5147 18.5313 18.5404 18.7236C18.5684 18.9341 18.5497 19.0642 18.526 19.1177L19.742 19.6564ZM6.46253 14.5583C6.46253 14.8993 6.49819 15.2271 6.54536 15.5374L7.86025 15.3375C7.81873 15.0644 7.79253 14.8083 7.79253 14.5583H6.46253ZM6.97879 10.7181L8.61641 10.7181L8.61642 9.38813L6.9788 9.38813L6.97879 10.7181ZM19.7746 11.757C19.5477 12.0176 19.418 12.4544 19.6236 12.8606L20.8102 12.2598C20.8547 12.3476 20.8564 12.4301 20.8465 12.486C20.8369 12.5404 20.8136 12.5891 20.7777 12.6303L19.7746 11.757ZM18.712 17.3868C18.4384 17.5837 18.3215 17.9378 18.4305 18.2615L19.691 17.837C19.7697 18.0707 19.6853 18.3249 19.4888 18.4664L18.712 17.3868Z" fill="black"/>
</g>
</svg>
