<svg width="24" height="24" viewBox="0 0 24 24" fill="none" xmlns="http://www.w3.org/2000/svg">
<g id="msg_emoji_bath">
<path id="Path" d="M4.58884 13.0621C4.58884 17.1866 5.89031 19.2488 8.49326 19.2488C10.9455 19.2488 12.6333 19.2488 15.4872 19.2488C18.0249 19.2488 19.2937 17.1866 19.2937 13.0621" stroke="black" stroke-width="1.33333"/>
<path id="Path 2" d="M18.2593 12.8798V4.33334C18.2593 3.04467 17.2148 2 15.9261 2C15.4196 2 14.8799 2 14.3609 2C12.7559 2 12.4226 2.87444 12.2054 3.74356" stroke="black" stroke-width="1.33333"/>
<path id="Path 3" fill-rule="evenodd" clip-rule="evenodd" d="M9.25868 6.64714C9.23466 6.84351 9.39411 7.00002 9.59194 7.00002H14.5426C14.741 7.00002 14.9006 6.8427 14.8757 6.64589C14.7828 5.91189 14.3217 4.29248 12.0627 4.29248C9.80235 4.29248 9.3484 5.91374 9.25868 6.64714Z" stroke="black" stroke-width="1.33333"/>
<path id="Path 4" d="M6.74608 18.9319L5.83069 20.6667" stroke="black" stroke-width="1.33333" stroke-linecap="round"/>
<path id="Path 4 Copy" d="M17.5518 19.2181L18.2817 20.6666" stroke="black" stroke-width="1.33333" stroke-linecap="round"/>
<path id="Path 291" d="M3.33334 13.0621H20.5" stroke="black" stroke-width="1.33333" stroke-linecap="round"/>
<path id="Path 292" d="M9.66667 10.4719V9.13861" stroke="black" stroke-width="1.33333" stroke-linecap="round"/>
<path id="Path 292 Copy" d="M11.9118 10.4719V9.13861" stroke="black" stroke-width="1.33333" stroke-linecap="round"/>
<path id="Path 292 Copy 2" d="M14.1667 10.4719V9.13861" stroke="black" stroke-width="1.33333" stroke-linecap="round"/>
</g>
</svg>
