<svg width="24" height="24" viewBox="0 0 24 24" fill="none" xmlns="http://www.w3.org/2000/svg">
<g id="msg_emoji_party">
<path id="Union" fill-rule="evenodd" clip-rule="evenodd" d="M10.3843 4.96328L10.3843 4.96332L10.3844 4.96383C10.3975 5.02079 10.41 5.07458 10.4217 5.12466C10.506 5.48307 10.2837 5.84194 9.92533 5.92619C9.56691 6.01045 9.20805 5.7882 9.12379 5.42978L9.08677 5.27128L9.08677 5.27127L9.08677 5.27125C8.95793 4.71782 8.80503 4.06102 8.55817 3.55137C8.4237 3.27375 8.29273 3.10968 8.18384 3.02985C8.10616 2.97289 8.03299 2.94838 7.89731 2.98475C7.64769 3.05167 7.38689 3.1405 7.15855 3.25256C6.92428 3.36754 6.76409 3.48762 6.67407 3.59772C6.59805 3.69071 6.57735 3.76574 6.58944 3.85935C6.60489 3.97897 6.6869 4.20805 6.99751 4.5563C7.24258 4.83108 7.21851 5.2525 6.94373 5.49758C6.66896 5.74265 6.24754 5.71858 6.00246 5.4438C5.59274 4.98443 5.32963 4.51431 5.26709 4.03015C5.2012 3.51998 5.36965 3.08667 5.64184 2.75376C5.90003 2.43797 6.24712 2.21461 6.57112 2.05561C6.90104 1.89369 7.2495 1.77801 7.55204 1.69689C8.09158 1.55225 8.57971 1.66677 8.97223 1.95457C9.33356 2.2195 9.58173 2.60591 9.75815 2.97014C10.075 3.62421 10.2615 4.43178 10.3843 4.96328L10.3843 4.96328ZM12.5053 2.28901C12.5053 2.6327 12.2265 2.91132 11.8827 2.91132C11.5388 2.91132 11.2601 2.6327 11.2601 2.28901C11.2601 1.94531 11.5388 1.66669 11.8827 1.66669C12.2265 1.66669 12.5053 1.94531 12.5053 2.28901ZM19.9279 3.86697C20.3638 3.86697 20.7172 3.51373 20.7172 3.07799C20.7172 2.64224 20.3638 2.289 19.9279 2.289C19.4919 2.289 19.1385 2.64224 19.1385 3.07799C19.1385 3.51373 19.4919 3.86697 19.9279 3.86697ZM17.971 6.34243C18.1128 6.20067 18.3427 6.20068 18.4845 6.34245L19.1493 7.00698C19.2913 7.14884 19.2913 7.37891 19.1493 7.52077L18.4845 8.18531C18.3426 8.32707 18.1127 8.32706 17.9709 8.18529L17.3061 7.52076C17.1642 7.3789 17.1642 7.14882 17.3061 7.00697L17.971 6.34243ZM5.21858 6.7744C5.36042 6.63263 5.59032 6.63264 5.73215 6.77442L6.16125 7.20333C6.30317 7.3452 6.30317 7.57528 6.16124 7.71714L5.73209 8.14607C5.59025 8.28784 5.36036 8.28783 5.21852 8.14605L4.78943 7.71713C4.6475 7.57526 4.6475 7.34519 4.78943 7.20333L5.21858 6.7744ZM21.8775 10.5347C22.3134 10.5347 22.6668 10.1815 22.6668 9.74571C22.6668 9.30997 22.3134 8.95673 21.8775 8.95673C21.4415 8.95673 21.0881 9.30997 21.0881 9.74571C21.0881 10.1815 21.4415 10.5347 21.8775 10.5347ZM18.9867 11.8273C18.5199 11.6977 17.8536 11.5863 17.0649 11.6635C16.9955 11.6703 16.8182 11.7174 16.5341 11.8254C16.2704 11.9256 15.9702 12.0564 15.6823 12.1889C15.3958 12.3208 15.1287 12.4512 14.9327 12.5488C14.8349 12.5975 14.7553 12.6379 14.7004 12.6659L14.6375 12.6982L14.6216 12.7064L14.6168 12.7089C14.2902 12.8788 13.8877 12.7519 13.7177 12.4253C13.5477 12.0987 13.6747 11.6961 14.0013 11.5261L14.0082 11.5226L14.0263 11.5132L14.0941 11.4785C14.1523 11.4487 14.2359 11.4064 14.3381 11.3554C14.5421 11.2538 14.8222 11.1171 15.1247 10.9777C15.4259 10.8391 15.7566 10.6945 16.0603 10.5791C16.3435 10.4714 16.6698 10.3625 16.9351 10.3365C17.92 10.2401 18.7537 10.3788 19.3435 10.5426C19.6387 10.6245 19.8748 10.7133 20.0407 10.7836C20.1237 10.8187 20.1894 10.8494 20.2365 10.8724C20.2601 10.8839 20.279 10.8935 20.2931 10.9009L20.3107 10.9101L20.3167 10.9134L20.319 10.9146L20.32 10.9152C20.3203 10.9153 20.3209 10.9156 20.003 11.4945L20.3209 10.9156C20.6436 11.0929 20.7616 11.4982 20.5843 11.8209C20.4076 12.1427 20.0042 12.2609 19.682 12.0859L19.6785 12.0841C19.6738 12.0816 19.6646 12.0769 19.6511 12.0704C19.6242 12.0572 19.5803 12.0366 19.5207 12.0113C19.4012 11.9607 19.2198 11.892 18.9867 11.8273ZM20.7522 15.1622C20.9992 14.8892 20.9781 14.4676 20.7051 14.2206C20.4321 13.9736 20.0105 13.9947 19.7635 14.2677C19.6267 14.4189 19.496 14.6646 19.3977 14.8675C19.2858 15.0984 19.1684 15.3757 19.0681 15.6543C18.9692 15.9289 18.8788 16.227 18.8316 16.4941C18.8082 16.6264 18.7909 16.7747 18.7968 16.9208C18.8019 17.0478 18.8273 17.2771 18.9818 17.4809C19.3217 17.9292 19.8301 17.8884 20.0865 17.8318C20.3278 17.7786 20.5808 17.6647 20.7565 17.585C20.7315 17.7425 20.6857 17.9283 20.6152 18.136C20.4616 18.5887 20.249 18.9766 20.13 19.1296C19.9039 19.4202 19.9563 19.8391 20.2469 20.0651C20.5375 20.2912 20.9563 20.2389 21.1824 19.9483C21.4197 19.6432 21.6929 19.1095 21.8778 18.5645C22.0539 18.0458 22.2145 17.3343 22.0332 16.7389C21.9662 16.5191 21.82 16.301 21.5663 16.1775C21.3397 16.0673 21.1165 16.0774 20.9739 16.099C20.7212 16.1372 20.4505 16.2599 20.2785 16.3378L20.2518 16.3499L20.2386 16.3558C20.2632 16.2764 20.2914 16.1926 20.3225 16.106C20.4073 15.8705 20.5067 15.6365 20.5976 15.4489C20.6785 15.282 20.7316 15.1964 20.7477 15.1704L20.7526 15.1622L20.7529 15.1617C20.7529 15.1616 20.7529 15.1616 20.7528 15.1616C20.7527 15.1617 20.7525 15.1619 20.7522 15.1622ZM20.1291 16.867L20.129 16.8648C20.1302 16.8747 20.1294 16.8763 20.1291 16.867ZM15.7483 2.30566C16.1165 2.30566 16.415 2.60414 16.415 2.97233C16.415 3.16355 16.3681 3.78198 15.7499 4.18673C15.593 4.28944 15.4016 4.39033 15.2334 4.47895L15.1722 4.51121C14.9754 4.61532 14.7928 4.71458 14.6292 4.82404C14.2841 5.05483 14.1661 5.23681 14.1485 5.39708C14.1179 5.67526 14.2498 5.86522 14.6437 6.29098L14.6901 6.34088C15.021 6.6958 15.5892 7.30516 15.4321 8.21057C15.3459 8.70692 15.0591 9.05488 14.7643 9.29979C14.4987 9.52033 14.1812 9.6931 13.9338 9.82765L13.9338 9.82765L13.8911 9.85088C13.6063 10.0061 13.4181 10.1148 13.2923 10.2294C13.1893 10.3233 13.1856 10.3681 13.1856 10.4045C13.1856 10.7727 12.8871 11.0712 12.5189 11.0712C12.1507 11.0712 11.8523 10.7727 11.8523 10.4045C11.8523 10.0559 11.9662 9.77118 12.1283 9.54209C11.2883 8.86433 10.5064 8.37512 9.88372 8.10961C9.54346 7.96452 9.28415 7.90074 9.10772 7.89062C9.02198 7.8857 8.97506 7.89384 8.95277 7.90029C8.94345 7.93091 8.92949 8.01095 8.95638 8.17823C8.99978 8.4482 9.13476 8.8244 9.38198 9.28944C9.87258 10.2123 10.7357 11.3562 11.8635 12.484C12.9913 13.6118 14.1351 14.4749 15.058 14.9655C15.523 15.2127 15.8992 15.3477 16.1692 15.3911C16.3358 15.4178 16.4159 15.4041 16.4468 15.3948C16.456 15.3642 16.4695 15.2854 16.4438 15.1224C16.402 14.8561 16.27 14.4844 16.027 14.0241C15.8637 13.7148 15.9821 13.3317 16.2914 13.1684C16.6007 13.0051 16.9838 13.1234 17.1471 13.4327C17.4231 13.9554 17.623 14.4667 17.6951 14.9256C17.7646 15.3677 17.7342 15.9064 17.3463 16.2943C17.2015 16.4391 17.0358 16.5341 16.8619 16.5927C16.8277 16.6178 16.7904 16.6399 16.7503 16.6583L6.82705 21.2141C5.67454 21.7433 4.31108 21.4479 3.48087 20.4893C2.73278 19.6254 2.57245 18.3985 3.07346 17.3715L7.6762 7.93612C7.68839 7.60663 7.78604 7.2682 8.0531 7.00114C8.37468 6.67956 8.80379 6.60443 9.18028 6.62603C9.5585 6.64774 9.96889 6.76891 10.3806 6.94445C11.2058 7.29634 12.1714 7.92556 13.146 8.73867L13.2395 8.68752L13.2395 8.68752L13.253 8.68019C13.5394 8.52405 13.7516 8.40762 13.9123 8.27411C14.0593 8.15207 14.1045 8.06247 14.1184 7.98258C14.1536 7.77945 14.0734 7.63785 13.665 7.19651L13.6283 7.1569C13.2874 6.79003 12.721 6.18035 12.8231 5.25143C12.9073 4.48526 13.4522 4.00721 13.8879 3.71577C14.1146 3.56412 14.3519 3.43673 14.5489 3.33254L14.6039 3.30352C14.7872 3.20667 14.919 3.13704 15.0195 3.07123C15.0424 3.05624 15.0537 3.04384 15.0593 3.03662C15.0654 3.02882 15.0697 3.02087 15.0731 3.01233C15.0767 3.00324 15.079 2.99371 15.0803 2.98501C15.0815 2.97746 15.0816 2.97264 15.0816 2.97225L15.0816 2.97233C15.0816 2.60414 15.3801 2.30566 15.7483 2.30566ZM14.4634 16.0839C14.543 16.1262 14.6222 16.1667 14.7011 16.2053L11.4221 17.7107L11.4265 17.6942L11.4257 17.694L11.4138 17.6908C11.4023 17.6876 11.3836 17.6823 11.3583 17.6749C11.3077 17.6599 11.2311 17.6363 11.1336 17.6031C10.9382 17.5365 10.6609 17.4324 10.3419 17.2844C9.69783 16.9857 8.91403 16.5222 8.28339 15.8544C7.65239 15.1863 7.24519 14.3948 6.99503 13.7553C6.87096 13.4382 6.78817 13.1652 6.73689 12.9739C6.72173 12.9174 6.70938 12.8682 6.69956 12.8272L8.19734 9.75688C8.21889 9.79917 8.24096 9.84156 8.26353 9.88402C8.82785 10.9455 9.77668 12.1885 10.9678 13.3796C12.1589 14.5708 13.4019 15.5196 14.4634 16.0839ZM5.87062 14.5265L4.2119 17.9268C3.93338 18.4978 4.02251 19.1798 4.43838 19.66C4.8999 20.193 5.65786 20.3572 6.29855 20.063L9.74872 18.479C9.02126 18.1383 8.09043 17.592 7.31405 16.7699C6.62492 16.0403 6.16712 15.2146 5.87062 14.5265ZM8.93597 7.90695C8.93594 7.90692 8.93614 7.90675 8.9366 7.90647L8.93884 7.90531C8.93705 7.90653 8.93603 7.90701 8.93597 7.90695Z" fill="black"/>
</g>
</svg>
