<svg width="24" height="24" viewBox="0 0 24 24" fill="none" xmlns="http://www.w3.org/2000/svg">
<g id="msg_emoji_activities2">
<g id="Group">
<circle id="Oval" cx="12" cy="12" r="8.66667" stroke="black" stroke-width="1.33333"/>
<path id="Path" d="M3.72971 9.74733L6.9315 9.01801" stroke="black" stroke-width="0.833333"/>
<path id="Path 2" d="M7.30869 4.80237L7.60294 6.55612" stroke="black" stroke-width="0.833333"/>
<path id="Path 3" d="M9.63872 6.85486L14.2397 4.56647" stroke="black" stroke-width="0.833333"/>
<path id="Path 4" d="M16.1948 10.6243L16.4791 5.6792" stroke="black" stroke-width="0.833333"/>
<path id="Path 5" d="M9.92909 9.38171L13.6328 11.3414" stroke="black" stroke-width="0.833333"/>
<path id="Path 6" d="M20.6388 12.139L17.9753 12.4734" stroke="black" stroke-width="0.833333"/>
<path id="Path 7" d="M16.4791 18.8181L16.337 14.9803" stroke="black" stroke-width="0.833333"/>
<path id="Path 8" d="M13.6328 20.287C13.6328 20.287 12.5696 19.5906 11.781 18.9458C10.9924 18.301 10.3518 17.6046 10.3518 17.6046" stroke="black" stroke-width="0.833333"/>
<path id="Path 9" d="M8.25363 19.8141L8.99274 17.6046" stroke="black" stroke-width="0.833333"/>
<path id="Path 10" d="M4.36279 15.4792C4.36279 15.4792 4.96804 15.8837 5.64715 15.8125C6.32625 15.7413 6.9315 15.6867 6.9315 15.6867" stroke="black" stroke-width="0.833333"/>
<path id="Path 11" d="M9.92909 16.1899L14.2397 14.5195" stroke="black" stroke-width="0.833333"/>
<path id="Path 12" d="M7.30869 14.9803L7.45582 9.74731" stroke="black" stroke-width="0.833333"/>
<path id="Path 13" fill-rule="evenodd" clip-rule="evenodd" d="M5.97134 9.37914C5.80567 9.16016 5.79122 8.86201 5.93492 8.62803L7.18709 6.58919C7.30836 6.39174 7.52346 6.27142 7.75518 6.27142H9.68512C10.0533 6.27142 10.3518 6.5699 10.3518 6.93809V9.35329C10.3518 9.59634 10.2195 9.82012 10.0066 9.93732L7.96102 11.0633C7.67095 11.2229 7.30766 11.1455 7.10789 10.8814L5.97134 9.37914Z" fill="black"/>
<path id="Path 14" fill-rule="evenodd" clip-rule="evenodd" d="M13.6051 14.6202C13.6216 14.8352 13.774 15.0153 13.9832 15.0672L16.1369 15.6018C16.3421 15.6527 16.5571 15.569 16.674 15.3929L18.4079 12.7788C18.5285 12.597 18.5173 12.3579 18.3802 12.1882L16.6653 10.0658C16.5157 9.88054 16.2562 9.82655 16.0451 9.9367L13.6457 11.1887C13.4683 11.2813 13.3632 11.4707 13.3785 11.6703L13.6051 14.6202Z" fill="black"/>
<path id="Path 15" fill-rule="evenodd" clip-rule="evenodd" d="M7.86156 14.0973C7.71483 14.0086 7.52467 14.0456 7.42199 14.183L6.47184 15.4543C6.37225 15.5875 6.38615 15.7738 6.50441 15.8908L8.69337 18.0562C8.74334 18.1056 8.80766 18.138 8.87713 18.1487L10.6785 18.4257C10.8804 18.4567 11.0624 18.3005 11.0624 18.0962V16.2221C11.0624 16.1054 11.0015 15.9973 10.9017 15.9369L7.86156 14.0973Z" fill="black"/>
<path id="Path 16" fill-rule="evenodd" clip-rule="evenodd" d="M14.0188 3.90745C13.6698 3.851 13.3532 4.12047 13.3532 4.47399C13.3532 4.67743 13.4609 4.86567 13.6363 4.96876L16.1414 6.44117C16.2682 6.5157 16.4161 6.54621 16.562 6.52793L17.0866 6.46226C17.6652 6.38981 17.8785 5.66174 17.4304 5.2885L16.335 4.37614C16.2433 4.29972 16.1327 4.24935 16.0148 4.23028L14.0188 3.90745Z" fill="black"/>
</g>
</g>
</svg>
