<svg xmlns="http://www.w3.org/2000/svg" width="32" height="32"><path d="M13.846,6.618C13.863,6.694 13.88,6.766 13.896,6.833C14.008,7.311 13.712,7.789 13.234,7.902C12.756,8.014 12.277,7.718 12.165,7.24L12.116,7.028C11.944,6.29 11.74,5.415 11.411,4.735C11.232,4.365 11.057,4.146 10.912,4.04C10.808,3.964 10.711,3.931 10.53,3.98C10.197,4.069 9.849,4.187 9.545,4.337C9.232,4.49 9.019,4.65 8.899,4.797C8.797,4.921 8.77,5.021 8.786,5.146C8.807,5.305 8.916,5.611 9.33,6.075C9.657,6.441 9.625,7.003 9.258,7.33C8.892,7.657 8.33,7.625 8.003,7.258C7.457,6.646 7.106,6.019 7.023,5.374C6.935,4.693 7.16,4.116 7.522,3.672C7.867,3.251 8.329,2.953 8.761,2.741C9.201,2.525 9.666,2.371 10.069,2.263C10.789,2.07 11.44,2.222 11.963,2.606C12.445,2.959 12.776,3.475 13.011,3.96C13.433,4.832 13.682,5.909 13.846,6.618ZM16.674,3.052C16.674,3.51 16.302,3.882 15.844,3.882C15.385,3.882 15.013,3.51 15.013,3.052C15.013,2.594 15.385,2.222 15.844,2.222C16.302,2.222 16.674,2.594 16.674,3.052ZM26.571,5.156C25.989,5.156 25.518,4.685 25.518,4.104C25.518,3.523 25.989,3.052 26.571,3.052C27.152,3.052 27.623,3.523 27.623,4.104C27.623,4.685 27.152,5.156 26.571,5.156ZM23.961,8.457C24.15,8.268 24.457,8.268 24.646,8.457L25.532,9.343C25.722,9.532 25.722,9.839 25.532,10.028L24.646,10.914C24.457,11.103 24.15,11.103 23.961,10.914L23.075,10.028C22.886,9.839 22.886,9.532 23.075,9.343L23.961,8.457ZM6.958,9.033C7.147,8.844 7.454,8.844 7.643,9.033L8.215,9.604C8.404,9.794 8.404,10.1 8.215,10.29L7.643,10.861C7.454,11.05 7.147,11.05 6.958,10.861L6.386,10.29C6.197,10.1 6.197,9.794 6.386,9.604L6.958,9.033ZM29.17,14.046C28.589,14.046 28.117,13.575 28.117,12.994C28.117,12.413 28.589,11.942 29.17,11.942C29.751,11.942 30.222,12.413 30.222,12.994C30.222,13.575 29.751,14.046 29.17,14.046ZM25.316,15.77C24.693,15.597 23.805,15.448 22.753,15.551C22.661,15.56 22.424,15.623 22.045,15.767C21.694,15.901 21.294,16.075 20.91,16.252C20.528,16.428 20.172,16.602 19.91,16.732C19.78,16.797 19.674,16.851 19.601,16.888L19.517,16.931L19.489,16.945C19.054,17.172 18.517,17.003 18.29,16.567C18.064,16.132 18.233,15.595 18.668,15.368L18.702,15.351L18.792,15.305C18.87,15.265 18.981,15.209 19.117,15.141C19.389,15.005 19.763,14.823 20.166,14.637C20.568,14.452 21.009,14.259 21.414,14.105C21.791,13.962 22.226,13.817 22.58,13.782C23.893,13.653 25.005,13.838 25.791,14.057C26.185,14.166 26.5,14.284 26.721,14.378C26.832,14.425 26.919,14.466 26.982,14.497C27.013,14.512 27.039,14.525 27.057,14.535L27.081,14.547L27.093,14.553C27.093,14.553 27.095,14.554 27.095,14.554C27.525,14.791 27.682,15.331 27.446,15.761C27.21,16.19 26.672,16.348 26.243,16.115L26.238,16.112C26.232,16.109 26.219,16.103 26.201,16.094C26.166,16.076 26.107,16.049 26.028,16.015C25.868,15.948 25.626,15.856 25.316,15.77ZM27.67,20.216L27.664,20.227C27.642,20.262 27.571,20.376 27.463,20.599C27.342,20.849 27.21,21.161 27.097,21.475C27.055,21.59 27.018,21.702 26.985,21.808L27.002,21.8L27.038,21.784C27.267,21.68 27.628,21.516 27.965,21.465C28.155,21.437 28.453,21.423 28.755,21.57C29.093,21.735 29.288,22.025 29.378,22.319C29.619,23.112 29.405,24.061 29.17,24.753C28.924,25.479 28.56,26.191 28.243,26.598C27.942,26.985 27.383,27.055 26.996,26.753C26.608,26.452 26.539,25.894 26.84,25.506C26.999,25.302 27.282,24.785 27.487,24.181C27.581,23.904 27.642,23.657 27.675,23.447C27.441,23.553 27.104,23.705 26.782,23.776C26.44,23.851 25.762,23.906 25.309,23.308C25.103,23.036 25.069,22.73 25.062,22.561C25.055,22.366 25.078,22.169 25.109,21.992C25.172,21.636 25.292,21.239 25.424,20.872C25.558,20.501 25.714,20.131 25.864,19.823C25.995,19.553 26.169,19.225 26.351,19.024C26.681,18.66 27.243,18.631 27.607,18.961C27.971,19.29 27.999,19.852 27.67,20.216ZM20.998,3.074C21.489,3.074 21.887,3.472 21.887,3.963C21.887,4.218 21.824,5.043 21,5.582C20.791,5.719 20.535,5.854 20.311,5.972L20.23,6.015C19.967,6.154 19.724,6.286 19.506,6.432C19.045,6.74 18.888,6.982 18.865,7.196C18.824,7.567 19,7.82 19.525,8.388L19.587,8.455C20.028,8.928 20.786,9.74 20.576,10.947C20.461,11.609 20.079,12.073 19.686,12.4C19.332,12.694 18.908,12.924 18.578,13.104L18.521,13.135C18.142,13.341 17.891,13.486 17.723,13.639C17.586,13.764 17.581,13.824 17.581,13.873C17.581,14.364 17.183,14.762 16.692,14.762C16.201,14.762 15.803,14.364 15.803,13.873C15.803,13.408 15.955,13.028 16.171,12.723C15.051,11.819 14.009,11.167 13.178,10.813C12.725,10.619 12.379,10.534 12.144,10.521C12.029,10.514 11.967,10.525 11.937,10.534C11.925,10.575 11.906,10.681 11.942,10.904C12,11.264 12.18,11.766 12.509,12.386C13.163,13.616 14.314,15.142 15.818,16.645C17.322,18.149 18.847,19.3 20.077,19.954C20.697,20.284 21.199,20.464 21.559,20.521C21.781,20.557 21.888,20.539 21.929,20.526C21.941,20.486 21.959,20.381 21.925,20.163C21.869,19.808 21.693,19.313 21.369,18.699C21.152,18.286 21.309,17.776 21.722,17.558C22.134,17.34 22.645,17.498 22.863,17.91C23.231,18.607 23.497,19.289 23.593,19.901C23.686,20.49 23.646,21.209 23.128,21.726C22.935,21.919 22.714,22.045 22.483,22.124C22.437,22.157 22.387,22.187 22.334,22.211L9.103,28.285C7.566,28.991 5.748,28.597 4.641,27.319C3.644,26.167 3.43,24.531 4.098,23.162L10.235,10.581C10.251,10.142 10.381,9.691 10.737,9.335C11.166,8.906 11.738,8.806 12.24,8.835C12.745,8.864 13.292,9.025 13.841,9.259C14.941,9.728 16.229,10.567 17.528,11.652L17.653,11.583L17.671,11.574C18.053,11.365 18.335,11.21 18.55,11.032C18.746,10.869 18.806,10.75 18.825,10.643C18.871,10.373 18.765,10.184 18.22,9.595L18.171,9.543C17.717,9.053 16.961,8.24 17.097,7.002C17.21,5.98 17.936,5.343 18.517,4.954C18.819,4.752 19.136,4.582 19.399,4.443L19.472,4.405C19.716,4.276 19.892,4.183 20.026,4.095C20.057,4.075 20.072,4.058 20.079,4.049C20.087,4.038 20.093,4.028 20.097,4.016C20.102,4.004 20.105,3.992 20.107,3.98C20.109,3.97 20.109,3.964 20.109,3.963C20.109,3.472 20.507,3.074 20.998,3.074ZM19.285,21.445C17.869,20.693 16.212,19.428 14.624,17.839C13.036,16.251 11.77,14.594 11.018,13.179C10.988,13.122 10.959,13.066 10.93,13.009L8.933,17.103C8.946,17.158 8.962,17.223 8.983,17.299C9.051,17.554 9.161,17.918 9.327,18.34C9.66,19.193 10.203,20.248 11.045,21.139C11.885,22.03 12.93,22.648 13.789,23.046C14.215,23.243 14.584,23.382 14.845,23.471C14.975,23.515 15.077,23.547 15.144,23.567C15.178,23.576 15.203,23.583 15.218,23.588L15.235,23.592L15.229,23.614L19.601,21.607C19.496,21.556 19.391,21.502 19.285,21.445ZM7.827,19.369L5.616,23.902C5.245,24.664 5.363,25.573 5.918,26.213C6.533,26.924 7.544,27.143 8.398,26.751L12.998,24.639C12.028,24.184 10.787,23.456 9.752,22.36C8.833,21.387 8.223,20.286 7.827,19.369Z"/></svg>