<svg xmlns="http://www.w3.org/2000/svg" width="32" height="32"><path d="M23.795,10.663C24.896,10.984 25.775,11.904 25.989,13.106L27.587,22.094C27.893,23.816 26.719,25.453 24.989,25.715L9.192,28.101C7.488,28.359 5.9,27.182 5.649,25.477L4.33,16.502C4.082,14.811 5.244,13.236 6.933,12.975L22.45,10.576C22.485,10.571 22.519,10.566 22.554,10.562L19.216,6.8C18.891,6.433 18.924,5.871 19.291,5.546C19.658,5.22 20.22,5.254 20.546,5.62L23.891,9.39C24.216,9.757 24.183,10.319 23.816,10.644C23.809,10.651 23.802,10.657 23.795,10.663ZM7.204,14.732C6.481,14.844 5.983,15.518 6.089,16.243L7.408,25.219C7.515,25.949 8.196,26.454 8.926,26.343L24.723,23.957C25.465,23.845 25.968,23.143 25.837,22.405L24.239,13.417C24.112,12.704 23.438,12.222 22.722,12.333L7.204,14.732ZM16.459,2.222C17.449,2.222 18.252,3.019 18.252,4C18.252,4.981 17.449,5.778 16.459,5.778C15.47,5.778 14.667,4.981 14.667,4C14.667,3.019 15.47,2.222 16.459,2.222ZM8.055,12.284C7.694,12.616 7.131,12.593 6.799,12.232C6.467,11.871 6.49,11.308 6.851,10.976L12.412,5.855C12.772,5.523 13.335,5.546 13.668,5.907C14,6.268 13.977,6.83 13.616,7.163L8.055,12.284Z"/>
</svg>
