<svg xmlns="http://www.w3.org/2000/svg" width="32" height="32"><path d="M14.947,24.383C15.473,24.067 16.13,24.067 16.656,24.383L20.679,26.805C21.935,27.561 23.481,26.435 23.147,25.008L22.083,20.457C21.943,19.857 22.147,19.229 22.613,18.826L26.156,15.765C27.266,14.806 26.674,12.984 25.212,12.86L20.543,12.465C19.931,12.413 19.398,12.027 19.157,11.462L17.326,7.154C16.755,5.809 14.848,5.809 14.276,7.154L12.445,11.462C12.205,12.027 11.672,12.413 11.06,12.465L6.39,12.86C4.928,12.984 4.337,14.806 5.447,15.765L8.989,18.826C9.456,19.229 9.66,19.857 9.52,20.457L8.455,25.008C8.121,26.435 9.668,27.561 10.923,26.805L14.947,24.383Z"/>
</svg>
