<svg xmlns="http://www.w3.org/2000/svg" width="32" height="32"><path d="M10.824,20.185C8.282,20.185 6.222,18.125 6.222,15.584C6.222,13.042 8.282,10.982 10.824,10.982L13.854,10.982C14.236,10.982 14.427,10.982 14.613,10.962C15.124,10.907 15.616,10.738 16.053,10.468C16.212,10.37 16.363,10.252 16.665,10.018L19.837,7.551C21.743,6.068 22.696,5.327 23.497,5.333C24.193,5.339 24.849,5.66 25.281,6.206C25.778,6.834 25.778,8.041 25.778,10.456L25.778,20.711C25.778,23.126 25.778,24.333 25.281,24.961C24.849,25.507 24.193,25.828 23.497,25.834C22.696,25.841 21.743,25.099 19.837,23.616L16.665,21.149C16.363,20.915 16.212,20.797 16.053,20.699C15.616,20.429 15.124,20.26 14.613,20.205C14.427,20.185 14.236,20.185 13.854,20.185L10.824,20.185ZM10.932,22.377C11.046,22.133 11.242,21.937 11.487,21.822C11.718,21.714 12.017,21.714 12.614,21.714L13.634,21.714C14.231,21.714 14.53,21.714 14.762,21.822C15.006,21.937 15.202,22.133 15.316,22.377C15.425,22.609 15.425,22.907 15.425,23.505L15.425,24.786C15.425,26.057 14.395,27.087 13.124,27.087C11.854,27.087 10.823,26.057 10.823,24.786L10.823,23.505C10.823,22.907 10.823,22.609 10.932,22.377Z"/>
</svg>
