<svg xmlns="http://www.w3.org/2000/svg" width="32" height="32"><path d="M16,14.944C13.3,14.944 11.111,12.756 11.111,10.056C11.111,7.355 13.3,5.167 16,5.167C18.7,5.167 20.889,7.355 20.889,10.056C20.889,12.756 18.7,14.944 16,14.944ZM6.222,22.75C6.222,22.039 6.396,21.332 6.871,20.803C7.993,19.554 10.701,17.389 16,17.389C21.299,17.389 24.007,19.554 25.129,20.803C25.604,21.332 25.778,22.039 25.778,22.75C25.778,24.514 24.348,25.944 22.584,25.944L9.416,25.944C7.652,25.944 6.222,24.514 6.222,22.75Z"/>
</svg>
