<svg xmlns="http://www.w3.org/2000/svg" width="32" height="32"><path d="M12.741,15.407C10.45,15.407 8.593,13.55 8.593,11.259C8.593,8.968 10.45,7.111 12.741,7.111C15.032,7.111 16.889,8.968 16.889,11.259C16.889,13.55 15.032,15.407 12.741,15.407ZM4.444,22.547C4.444,21.751 4.643,20.956 5.207,20.395C6.268,19.342 8.549,17.778 12.741,17.778C15.69,17.778 17.693,18.552 18.991,19.378C19.019,19.395 19.047,19.413 19.074,19.431C19.581,19.762 19.976,20.099 20.274,20.395C20.345,20.465 20.41,20.539 20.469,20.616C20.885,21.155 21.037,21.851 21.037,22.547C21.037,23.839 19.991,24.886 18.7,24.889L6.786,24.889C5.493,24.889 4.444,23.84 4.444,22.547ZM22.313,24.889C22.75,24.215 23.004,23.41 23.004,22.547C23.004,21.473 22.742,20.073 21.66,18.999L21.636,18.975C21.826,18.967 22.022,18.963 22.222,18.963C25.811,18.963 27.765,20.263 28.676,21.141C29.161,21.608 29.333,22.28 29.333,22.954C29.333,24.022 28.467,24.889 27.398,24.889L22.313,24.889ZM22.222,16.593C20.259,16.593 18.667,15.001 18.667,13.037C18.667,11.073 20.259,9.482 22.222,9.482C24.186,9.482 25.778,11.073 25.778,13.037C25.778,15.001 24.186,16.593 22.222,16.593Z"/>
</svg>
