<svg xmlns="http://www.w3.org/2000/svg" width="32" height="32"><path d="M19.902,8.029C21.613,9.63 22.667,11.814 22.667,14.222C22.667,19.131 18.289,23.111 12.889,23.111C12.63,23.111 12.374,23.102 12.12,23.084L12.098,23.082C11.547,23.042 11.01,22.961 10.489,22.842C10.344,22.808 10.179,22.96 9.904,23.215C9.571,23.522 9.077,23.979 8.26,24.437C7.218,25.022 5.773,24.971 5.528,24.868C5.294,24.77 5.474,24.574 5.792,24.23C6.012,23.992 6.297,23.683 6.557,23.285C7.191,22.313 6.929,21.155 6.644,20.946C4.419,19.317 3.111,17.022 3.111,14.222C3.111,9.313 7.489,5.333 12.889,5.333C15.64,5.333 18.126,6.366 19.902,8.029ZM28.889,16.889C28.889,19.689 27.581,21.984 25.356,23.613C25.071,23.821 24.809,24.979 25.443,25.952C25.703,26.349 25.988,26.659 26.208,26.897C26.526,27.241 26.706,27.437 26.472,27.535C26.227,27.637 24.782,27.688 23.74,27.103C22.923,26.646 22.429,26.189 22.096,25.881C21.821,25.627 21.656,25.475 21.511,25.508C20.743,25.684 19.939,25.778 19.111,25.778C17.805,25.778 16.558,25.545 15.419,25.122C15.009,24.97 15.104,24.392 15.531,24.297C20.395,23.213 24.142,19.204 24.142,14.222C24.142,12.546 23.718,10.98 22.97,9.599C22.766,9.223 23.116,8.768 23.505,8.946C26.698,10.409 28.889,13.416 28.889,16.889Z"/>
</svg>
