<svg xmlns="http://www.w3.org/2000/svg" width="32" height="32"><path d="M24.035,18.895C24.035,21.467 24.035,22.753 23.535,23.735C23.094,24.599 22.392,25.301 21.528,25.741C20.546,26.242 19.26,26.242 16.689,26.242L15.312,26.242C12.74,26.242 11.455,26.242 10.472,25.741C9.609,25.301 8.906,24.599 8.466,23.735C7.966,22.753 7.966,21.467 7.966,18.895L7.966,13.615C7.966,9.178 11.563,5.581 16,5.581C20.438,5.581 24.035,9.178 24.035,13.615L24.035,18.895ZM10.261,13.615L10.261,14.913C10.261,16.227 11.015,17.429 12.289,17.749C13.259,17.992 14.53,18.207 16,18.207C17.47,18.207 18.741,17.992 19.711,17.749C20.985,17.429 21.739,16.227 21.739,14.913L21.739,13.615C21.739,10.446 19.17,7.876 16,7.876C12.83,7.876 10.261,10.446 10.261,13.615ZM13.226,14.986C12.539,14.986 11.982,14.29 11.982,13.432C11.982,12.574 12.539,11.878 13.226,11.878C13.913,11.878 14.469,12.574 14.469,13.432C14.469,14.29 13.913,14.986 13.226,14.986ZM18.77,14.986C18.083,14.986 17.526,14.29 17.526,13.432C17.526,12.574 18.083,11.878 18.77,11.878C19.457,11.878 20.013,12.574 20.013,13.432C20.013,14.29 19.457,14.986 18.77,14.986ZM26.905,14.578C27.641,14.578 28.238,15.175 28.238,15.911L28.238,21.65C28.238,22.387 27.641,22.984 26.905,22.984C26.168,22.984 25.571,22.387 25.571,21.65L25.571,15.911C25.571,15.175 26.168,14.578 26.905,14.578ZM6.429,15.911L6.429,21.65C6.429,22.387 5.832,22.984 5.096,22.984C4.36,22.984 3.763,22.387 3.763,21.65L3.763,15.911C3.763,15.175 4.36,14.578 5.096,14.578C5.832,14.578 6.429,15.175 6.429,15.911Z"/>
</svg>
