<svg xmlns="http://www.w3.org/2000/svg" width="32" height="32"><path d="M5.522,8.478C5.861,7.511 6.622,6.75 7.589,6.411C8.129,6.222 8.801,6.222 10.145,6.222L11.605,6.222C11.794,6.222 11.889,6.222 11.98,6.227C12.747,6.269 13.476,6.571 14.047,7.083C14.115,7.144 14.182,7.211 14.316,7.345C14.45,7.479 14.517,7.546 14.585,7.607C15.156,8.119 15.885,8.421 16.651,8.463C16.742,8.468 16.837,8.468 17.026,8.468L23.972,8.468C24.389,8.468 24.598,8.468 24.772,8.495C25.733,8.648 26.487,9.401 26.639,10.362C26.667,10.537 26.667,10.745 26.667,11.163C26.667,11.267 26.667,11.319 26.66,11.363C26.622,11.603 26.433,11.791 26.193,11.829C26.149,11.836 26.097,11.836 25.993,11.836L6.135,11.836C5.911,11.836 5.799,11.836 5.709,11.805C5.548,11.748 5.421,11.622 5.365,11.46C5.333,11.37 5.333,11.258 5.333,11.034C5.333,9.69 5.333,9.018 5.522,8.478ZM5.517,15.001C5.678,14.685 5.936,14.427 6.253,14.265C6.613,14.082 7.085,14.082 8.028,14.082L23.972,14.082C24.915,14.082 25.387,14.082 25.747,14.265C26.064,14.427 26.322,14.685 26.483,15.001C26.667,15.362 26.667,15.833 26.667,16.777L26.667,18.124C26.667,20.639 26.667,21.897 26.177,22.858C25.747,23.703 25.059,24.39 24.214,24.82C23.254,25.31 21.996,25.31 19.481,25.31L12.519,25.31C10.004,25.31 8.746,25.31 7.786,24.82C6.941,24.39 6.253,23.703 5.823,22.858C5.333,21.897 5.333,20.639 5.333,18.124L5.333,16.777C5.333,15.833 5.333,15.362 5.517,15.001Z"/>
</svg>
